<?xml version="1.0" encoding="UTF-8" standalone="no"?>
<!-- Created with Inkscape (http://www.inkscape.org/) -->

<svg
   xmlns:dc="http://purl.org/dc/elements/1.1/"
   xmlns:cc="http://creativecommons.org/ns#"
   xmlns:rdf="http://www.w3.org/1999/02/22-rdf-syntax-ns#"
   xmlns:svg="http://www.w3.org/2000/svg"
   xmlns="http://www.w3.org/2000/svg"
   xmlns:sodipodi="http://sodipodi.sourceforge.net/DTD/sodipodi-0.dtd"
   xmlns:inkscape="http://www.inkscape.org/namespaces/inkscape"
   width="128px"
   height="128px"
   viewBox="0 0 128 128"
   version="1.1"
   id="SVGRoot"
   inkscape:version="0.92.3 (2405546, 2018-03-11)"
   sodipodi:docname="hand1.svg">
  <sodipodi:namedview
     id="base"
     pagecolor="#ffffff"
     bordercolor="#666666"
     borderopacity="1.0"
     inkscape:pageopacity="0.0"
     inkscape:pageshadow="2"
     inkscape:zoom="1.4142136"
     inkscape:cx="24.450568"
     inkscape:cy="132.65448"
     inkscape:document-units="px"
     inkscape:current-layer="SVGRoot"
     showgrid="true"
     inkscape:window-width="1299"
     inkscape:window-height="713"
     inkscape:window-x="67"
     inkscape:window-y="27"
     inkscape:window-maximized="1"
     inkscape:grid-bbox="true"
     inkscape:snap-global="false">
    <inkscape:grid
       type="xygrid"
       id="grid2215" />
  </sodipodi:namedview>
  <defs
     id="defs1552" />
  <metadata
     id="metadata1555">
    <rdf:RDF>
      <cc:Work
         rdf:about="">
        <dc:format>image/svg+xml</dc:format>
        <dc:type
           rdf:resource="http://purl.org/dc/dcmitype/StillImage" />
        <dc:title></dc:title>
        <dc:creator>
          <cc:Agent>
            <dc:title>Ryan C Nordeen</dc:title>
          </cc:Agent>
        </dc:creator>
      </cc:Work>
    </rdf:RDF>
  </metadata>
  <g
     inkscape:groupmode="layer"
     id="layer4"
     inkscape:label="draw" />
  <path
     style="fill:none;stroke:#000000;stroke-width:1.8547051px;stroke-linecap:butt;stroke-linejoin:miter;stroke-opacity:1"
     d="m 16.45966,54.909965 c 16.692346,24.80668 16.22867,22.951975 16.692346,25.038518 0.463676,2.086544 3.245734,21.560947 8.578011,27.125067 5.332277,5.56411 11.823745,9.96904 18.778889,9.04168 6.955144,-0.92735 8.114335,-4.40492 8.114335,-4.40492 0,0 4.835729,0.69742 7.186982,0.23184 4.889921,-0.96829 11.591907,-2.31838 14.605803,-12.519263 3.013896,-10.200878 2.086543,-10.432716 3.70941,-14.373965 1.622867,-3.941248 12.469164,-8.720892 16.815744,-15.166278 4.51875,-6.70069 2.28776,-19.891439 -11.557368,-15.901629 -2.138122,0.616152 -3.364228,1.221325 -5.655733,3.524587 -2.184536,2.195745 -2.747282,4.169355 -3.664763,6.376654 -1.463337,3.520539 -2.332432,7.36304 -3.138512,7.9676 -1.311474,0.983606 -4.590161,1.475408 -4.590161,1.475408 L 82.17071,61.358059 c 0,0 -0.305597,-31.962712 -1.475409,-37.377025 -0.802357,-3.713596 -2.207288,-8.420317 -8.108924,-8.420317 -5.901635,0 -7.136968,3.502288 -7.136968,3.502288 0,0 -1.311474,2.950818 -1.311474,3.77049 0,0.81967 -3.606555,-12.295074 -12.13114,-10.983601 -8.524584,1.311475 -8.68852,8.68852 -8.68852,8.68852 l 0.819672,4.754095 c 0,0 -2.950817,-8.852454 -12.13114,-6.229504 -9.180321,2.622948 -8.196715,11.475402 -8.196715,11.475402 0,0 0.655736,4.098359 2.29508,7.704912 1.639343,3.606556 8.909102,8.835246 1.871181,3.490637 -7.165555,-5.441536 -12.329238,1.879341 -12.682609,3.57019 -0.734465,3.514353 -0.432137,5.903634 1.165916,9.605819 z"
     id="path2217"
     inkscape:connector-curvature="0"
     sodipodi:nodetypes="cssscssssssssccsscssccscsssc" />
  <path
     style="fill:none;stroke:#000000;stroke-width:0.92735255;stroke-linecap:butt;stroke-linejoin:miter;stroke-miterlimit:4;stroke-dasharray:none;stroke-opacity:1"
     d="m 65.12154,90.210499 c 0,0 0.655737,-9.672125 8.36065,-12.622942"
     id="path2238"
     inkscape:connector-curvature="0" />
  <path
     style="fill:none;stroke:#000000;stroke-width:0.92735255;stroke-linecap:butt;stroke-linejoin:miter;stroke-miterlimit:4;stroke-dasharray:none;stroke-opacity:1"
     d="m 62.20351,81.948207 c 0,0 -12.295074,-3.606555 -15.901629,-1.311475"
     id="path2240"
     inkscape:connector-curvature="0" />
  <path
     style="fill:none;stroke:#000000;stroke-width:0.92735255;stroke-linecap:butt;stroke-linejoin:miter;stroke-miterlimit:4;stroke-dasharray:none;stroke-opacity:1"
     d="M 68.499084,56.277693 C 54.820633,57.90056 40.678507,66.478571 40.678507,66.478571"
     id="path2412"
     inkscape:connector-curvature="0" />
  <path
     style="fill:none;stroke:#000000;stroke-width:1.8547051px;stroke-linecap:butt;stroke-linejoin:miter;stroke-opacity:1"
     d="M 67.000374,56.532832 C 63.059126,30.335122 63.986478,23.379978 63.986478,23.379978"
     id="path2414"
     inkscape:connector-curvature="0"
     sodipodi:nodetypes="cc" />
  <path
     style="fill:none;stroke:#000000;stroke-width:1.8547051px;stroke-linecap:butt;stroke-linejoin:miter;stroke-opacity:1"
     d="M 54.972917,59.439046 44.048398,24.539169"
     id="path2416"
     inkscape:connector-curvature="0"
     sodipodi:nodetypes="cc" />
  <path
     style="fill:none;stroke:#000000;stroke-width:1.8547051px;stroke-linecap:butt;stroke-linejoin:miter;stroke-opacity:1"
     d="m 42.193693,65.110843 c 0,0 -9.737202,-19.474404 -11.360069,-21.097271"
     id="path2418"
     inkscape:connector-curvature="0" />
</svg>
