<?xml version="1.0" encoding="UTF-8" standalone="no"?>
<!-- Created with Inkscape (http://www.inkscape.org/) -->

<svg
   xmlns:dc="http://purl.org/dc/elements/1.1/"
   xmlns:cc="http://creativecommons.org/ns#"
   xmlns:rdf="http://www.w3.org/1999/02/22-rdf-syntax-ns#"
   xmlns:svg="http://www.w3.org/2000/svg"
   xmlns="http://www.w3.org/2000/svg"
   xmlns:xlink="http://www.w3.org/1999/xlink"
   xmlns:sodipodi="http://sodipodi.sourceforge.net/DTD/sodipodi-0.dtd"
   xmlns:inkscape="http://www.inkscape.org/namespaces/inkscape"
   width="512"
   height="512"
   viewBox="0 0 512 512"
   version="1.1"
   id="SVGRoot"
   inkscape:version="0.92.3 (2405546, 2018-03-11)"
   sodipodi:docname="rynor.svg">
  <sodipodi:namedview
     id="base"
     pagecolor="#ffffff"
     bordercolor="#666666"
     borderopacity="1.0"
     inkscape:pageopacity="0.0"
     inkscape:pageshadow="2"
     inkscape:zoom="0.74121094"
     inkscape:cx="224.2486"
     inkscape:cy="172.32721"
     inkscape:document-units="px"
     inkscape:current-layer="layer4"
     showgrid="false"
     inkscape:window-width="1299"
     inkscape:window-height="713"
     inkscape:window-x="67"
     inkscape:window-y="27"
     inkscape:window-maximized="1"
     inkscape:grid-bbox="true"
     inkscape:snap-global="true" />
  <defs
     id="defs831">
    <linearGradient
       inkscape:collect="always"
       id="linearGradient1511">
      <stop
         style="stop-color:#636363;stop-opacity:1"
         offset="0"
         id="stop1507" />
      <stop
         style="stop-color:#e6e6e6;stop-opacity:0"
         offset="1"
         id="stop1509" />
    </linearGradient>
    <linearGradient
       inkscape:collect="always"
       xlink:href="#linearGradient1511"
       id="linearGradient1513"
       x1="134.26395"
       y1="101.9129"
       x2="153.31566"
       y2="113.9129"
       gradientUnits="userSpaceOnUse"
       gradientTransform="translate(171.03407,-250.68572)" />
  </defs>
  <metadata
     id="metadata834">
    <rdf:RDF>
      <cc:Work
         rdf:about="">
        <dc:format>image/svg+xml</dc:format>
        <dc:type
           rdf:resource="http://purl.org/dc/dcmitype/StillImage" />
        <dc:title></dc:title>
        <dc:creator>
          <cc:Agent>
            <dc:title>Ryan C Nordeen</dc:title>
          </cc:Agent>
        </dc:creator>
      </cc:Work>
    </rdf:RDF>
  </metadata>
  <g
     inkscape:groupmode="layer"
     id="layer4"
     inkscape:label="beard1"
     style="display:inline"
     transform="translate(0,384)">
    <path
       style="fill:#000000;fill-opacity:0.93103452;stroke:#000000;stroke-width:1px;stroke-linecap:butt;stroke-linejoin:miter;stroke-opacity:1"
       d="m 309.53212,-130.20525 c -1.80178,0.0423 -3.08789,0.44922 -3.08789,0.44922 l -22.62696,6.36328 c 0,0 -24.04172,7.07023 -35.70898,7.77734 -11.66726,0.7071 -22.98118,3.88895 -34.64844,1.41407 -11.66726,-2.47488 -15.20312,-9.54493 -15.20312,-9.54493 0,0 6.9e-4,19.09251 30.05273,30.759772 30.05204,11.66727 46.31561,12.37323 53.74023,10.60547 7.42463,-1.76777 28.28516,-11.66602 28.28516,-11.66602 0,0 5.82036,-2.76277 9.19141,-7.423832 l 4.5957,6.716802 6.71875,9.89844 10.25195,10.60742 6.36524,1.76758 6.71679,-1.06055 c 0,0 5.03757,-1.67977 5.30274,-5.48047 0.26516,-3.8007 0.26562,-3.71289 0.26562,-3.71289 0,0 -0.52968,3.44815 -1.50195,4.33203 -0.97227,0.88389 -0.26559,2.12124 -5.12695,0.70703 -4.86136,-1.41421 -6.18792,-2.82946 -6.80664,-3.97851 -0.61871,-1.14905 -0.61719,-5.92188 -0.61719,-5.92188 0,0 -0.70857,-8.57239 -4.59766,-16.527342 -3.88909,-7.95495 -9.01414,-14.85 -13.78711,-20.33008 l -6.01171,-0.35351 -1.06055,2.47461 -0.0937,0.43554 c -0.62134,-1.79745 -1.49157,-3.5813 -2.73438,-5.03125 -2.38648,-2.78423 -5.55648,-3.33172 -7.87304,-3.27734 z"
       id="path1459"
       inkscape:connector-curvature="0" />
    <path
       style="fill:#000000;fill-opacity:1;stroke:#000000;stroke-width:1px;stroke-linecap:butt;stroke-linejoin:miter;stroke-opacity:1"
       d="m 82.034067,-158.68572 28.188823,-65.11627 3.53553,-13.43503 23.33452,19.09189 c 0,0 -2.82842,14.14213 -0.7071,27.57716 2.12132,13.43503 16.26345,46.66905 16.26345,46.66905 0,0 7.07107,21.92031 30.40559,37.47666 23.33453,15.556352 50.20459,44.547722 50.20459,44.547722 l 24.04163,19.09189 24.04163,9.19238 c 0,0 5.65685,-14.84924 0.7071,-21.92031 -4.94974,-7.07106 -10.6066,-9.89949 -10.6066,-9.89949 l 11.31371,-0.70711 36.76955,-2.82842 1.25758,3.50988 c 0,0 -2.5,-0.75 -3.75,7.5 -1.25,8.25 1.75,17.25 1.75,17.25 0,0 4.75,4.75 6.75,3 2,-1.75 0.75,-13 0.75,-13 0,0 -2,-7.75 2,-13 4,-5.25 6.25,-10.5 6.25,-10.5 0,0 2,-4 0.5,-6 -1.5,-2 7.25,7 7.25,7 l -4.75,3.75 7.5,7.75 7,11.25 -3.20684,6.15046 -4.77297,3.13779 c 0,0 1.76777,-3.88909 1.01647,-5.87782 -0.7513,-1.98874 -2.38649,-3.88909 -3.18198,-4.15426 -0.7955,-0.26516 -1.32583,0.0884 -1.32583,0.0884 0,0 -0.79549,0.35356 -1.01646,1.5468 -0.22098,1.19324 0.30935,4.86136 0.30935,4.86136 l 0.7955,3.97747 2.47487,8.3527 4.15426,6.27557 2.00363,7.01654 7,15.2499996 1.875,4.62499997 2.5,4.50000003 1.875,10.8750004 -1.125,2.125 -13.25,11 -4.75,6.125 -7.75,9.125 -1.125,1.125 7.5,9.875 c 0,0 4.25,0.625 6,0.25 1.75,-0.375 2.25,-0.25 2.25,-0.25 l -10.125,8.625 -14,8.875 -15.75,-2 4.75,7.625 -7.625,2.25 -10,1.375 c 0,0 -2.875,1.375 -7.5,-0.25 -4.625,-1.625 -10,-4.875 -10,-4.875 l -3.875,-0.75 -8.875,-0.5 -5.8125,0.3125 c 0,0 -5.5625,1.125 -5.8125,1.1875 -0.25,0.0625 -0.625,0 -1.3125,0.375 -0.6875,0.375 -1.125,1.8125 -1.125,1.8125 l 1.6875,2.875 6.375,4.875 7.625,3 4.3125,1 1.8125,0.25 -2.125,2.875 -3.05683,2.45754 -4.02167,1.94455 -3.84489,0.0884 -1.59099,-0.17678 -8.97142,-2.74004 -7.33623,-2.87262 -11.30297,-4.13856 5.75,11.999998 v 0.375 l -1.5625,-0.6875 -7.9375,-5.687498 -12.125,-10.375 -7.9375,-5.25 -9.91839,-5.01898 -4.15426,-1.59099 -5.74524,-1.76777 -4.59619,-0.70711 9.89949,19.18027 -3.71231,-1.59099 -4.86136,-2.56326 -6.89429,-4.68458 -15.37957,-14.76086 -7.15946,-8.3085 -14.58408,-13.96536 -4.33102,-3.62392 -6.18719,-5.39169 -18.82672,-20.15254 -0.79549,-0.7955 -3.71231,11.57887 -0.53033,2.38649 c 0,0 1.23743,6.8059 0.7071,8.75045 -0.53033,1.94454 -0.88388,2.38648 -0.88388,2.38648 0,0 -0.35355,0.7955 -1.14905,0.53033 -0.79549,-0.26516 -4.59619,-2.38648 -6.01041,-3.88909 -1.414213,-1.5026 -7.071063,-10.69499 -7.071063,-10.69499 l -8.04334,-13.96535 -7.86657,-18.0312304 -3.0052,-8.5736696 -5.12637,-19.36151 -5.75,-17.5 -1.5,-3 c 0,0 -2.25,-4.375 -4.3125,-7.25 -2.0625,-2.875 -3.187501,-3.75 -3.875001,-6.5625 -0.6875,-2.8125 -0.8125,-4.1875 -0.25,-7.4375 0.5625,-3.25 1.687501,-5.6875 1.687501,-5.6875 0,0 11.87853,-39.885722 19.47992,-57.740172 7.6014,-17.85444 7.52008,-18.32233 7.52008,-18.32233 z"
       id="path1475"
       inkscape:connector-curvature="0" />
  </g>
  <g
     inkscape:groupmode="layer"
     id="layer3"
     inkscape:label="nose"
     style="display:inline"
     transform="translate(0,384)">
    <path
       style="fill:none;stroke:#000000;stroke-width:1px;stroke-linecap:butt;stroke-linejoin:miter;stroke-opacity:1"
       d="m 325.89046,-131.34778 c 0,0 -4.06587,0.35356 -4.5962,1.76777 -0.53033,1.41421 0.70711,-1.76777 0.70711,-1.76777 0,0 4.59619,-2.47487 8.83883,-3.18198 4.24264,-0.70711 8.75045,-2.56326 8.75045,-2.56326 l 3.18198,-1.85616 4.68458,-2.56326 2.47488,-2.47487 1.76776,-1.67938 c 0,0 1.5026,-2.20971 1.85616,-3.09359 0.35355,-0.88389 0.26516,-3.35876 0.26516,-3.35876 l -0.7071,-3.09359 -2.12132,-6.0988 -2.56327,-5.03813 c 0,0 -3.27036,-4.41942 -5.03813,-12.37437 -1.76777,-7.95495 -3.00521,-11.66726 -3.00521,-11.66726"
       id="path1482"
       inkscape:connector-curvature="0" />
    <path
       style="fill:#4d4d4d;fill-opacity:1;stroke:#000000;stroke-width:1px;stroke-linecap:butt;stroke-linejoin:miter;stroke-opacity:1"
       d="m 287.35314,-136.65108 c 0,0 -16.79379,-16.61701 -14.84925,-20.32932 1.94455,-3.71231 14.31892,-10.6066 14.31892,-10.6066 0,0 6.89429,-3.18198 11.66726,-2.82843 4.77297,0.35356 13.43503,1.94455 17.14734,4.94975 3.71231,3.00521 5.12652,4.41942 5.12652,4.41942 0,0 -9.19239,-7.24785 -16.08668,-4.41942 -6.89429,2.82843 -13.43503,1.94454 -17.14734,7.07107 -3.71231,5.12652 -2.47487,12.19759 -2.47487,12.19759 0,0 0.53033,6.89429 2.2981,9.54594 z"
       id="path1484"
       inkscape:connector-curvature="0" />
    <path
       style="fill:url(#linearGradient1513);fill-opacity:1;stroke:#000000;stroke-width:1px;stroke-linecap:butt;stroke-linejoin:miter;stroke-opacity:1"
       d="m 311.57154,-151.85387 c -1.41421,-0.35356 -13.6118,0.53033 -15.02602,5.3033 -1.41421,4.77297 3.53554,6.71751 3.53554,6.71751 0,0 3.88908,1.94454 6.71751,2.12132 2.82843,0.17678 9.19239,-0.17678 9.19239,-0.17678 l 2.12132,5.12653 c 0,0 5.12652,-1.94455 7.6014,-4.94975 2.47487,-3.0052 2.12132,-5.48008 2.12132,-5.48008 0,0 -0.35355,-3.0052 -4.06587,-4.77297 -3.71231,-1.76776 -12.19759,-3.88908 -12.19759,-3.88908 z"
       id="path1486"
       inkscape:connector-curvature="0" />
    <path
       style="fill:none;stroke:#000000;stroke-width:1px;stroke-linecap:butt;stroke-linejoin:miter;stroke-opacity:1"
       d="m 235.38079,-116.32176 c 0,0 3.53553,1.41421 12.37437,-7.07107 8.83883,-8.48528 17.67766,-21.2132 17.67766,-21.2132 l 5.30331,-9.19239 1.41421,-2.12132"
       id="path1488"
       inkscape:connector-curvature="0" />
    <path
       style="fill:#4d4d4d;stroke:#000000;stroke-width:1px;stroke-linecap:butt;stroke-linejoin:miter;stroke-opacity:1"
       d="m 289.03407,-82.185718 c 0,0 14.5,-4.5 23.5,-4 9,0.5 9,-1 13,2.5 4,3.5 6.19002,4.66384 6.19002,4.66384 l -10.25305,-10.6066 c 0,0 -5.83363,-1.41421 -12.02082,-0.7071 -6.18718,0.7071 -13.08147,3.53553 -13.08147,3.53553 z"
       id="path1490"
       inkscape:connector-curvature="0" />
  </g>
  <g
     inkscape:groupmode="layer"
     id="layer5"
     inkscape:label="eyes"
     style="display:inline"
     transform="translate(0,384)">
    <path
       style="fill:#00ffff;fill-opacity:0.70114938;stroke:none;stroke-width:1px;stroke-linecap:butt;stroke-linejoin:miter;stroke-opacity:1"
       d="m 243.15896,-193.3964 c 0,0 -9.6127,-2.12899 -13.62489,-4.78932 -4.12997,-2.73841 -10,-11 -10,-11 l -16.5,-18.5 -9.67157,-11.25 c 0,0 -7.54952,-7.44093 -8.20711,-12.33578 -0.45504,-3.38712 1.07082,-7.07901 3.22487,-9.73224 1.78308,-2.19629 7.33579,-4.26776 7.33579,-4.26776 0,0 14.31802,-2.16422 23.81802,-2.41422 9.5,-0.25 21.5,0 39.75,0 18.25,0 31.75,2.25 38.75,3 7,0.75 18.25,2.25 18.25,2.25 l 22.5,6.75 19.5,8.25 15,10 10.25,11 4.25,7.75 0.25,20.25 -2.25,12.25 c 0,0 -1.3442,6.76431 -2.5,10 -1.11603,3.12433 -4.25,9 -4.25,9 l -7.5,8.25 -18.25,-2 -6.5,-13.25 -4.5,-13 -3.5,-9 c 0,0 -1.25,-5.75 -10.75,-4 -9.5,1.75 -23.5,6 -23.5,6 l -23.75,2.25 -18.5,2.25 z"
       id="path1498"
       inkscape:connector-curvature="0"
       sodipodi:nodetypes="cscccsscsssccccccccsccccccscccc" />
  </g>
  <g
     inkscape:groupmode="layer"
     id="layer6"
     inkscape:label="hair ear"
     style="display:inline"
     transform="translate(0,384)">
    <path
       style="fill:#ffffff;fill-opacity:1;stroke:#000000;stroke-width:1px;stroke-linecap:butt;stroke-linejoin:miter;stroke-opacity:1"
       d="m 108.45512,-245.36875 1.41421,-8.83883 c 0,0 0.35356,-16.61701 -12.020813,-23.33452 -12.37437,-6.71752 -23.68808,-4.5962 -23.68808,-4.5962 0,0 -22.627421,16.26346 -27.223611,47.72971 -4.59619,31.46625 6.36396,47.0226 6.36396,47.0226 0,0 5.656861,7.77818 11.667261,11.66726 6.01041,3.88909 13.78858,6.71752 15.9099,8.48528 2.12133,1.76777 8.48529,-7.42462 8.48529,-7.42462 0,0 2.12132,-1.41421 1.41421,-7.07106 -0.70711,-5.65686 -0.35355,-12.72793 -0.35355,-12.72793 l 4.94974,1.76777 c 0,0 1.76777,2.12132 2.82843,-5.3033 1.06066,-7.42462 0.70711,-15.2028 0.70711,-15.2028 0,0 -2.12132,-2.12132 0,-6.0104 2.121323,-3.88909 3.889093,-5.30331 7.424623,-7.77818 3.53553,-2.47487 7.77817,-2.82843 3.53553,-2.47487 -4.24264,0.35355 -2.82842,3.18198 -4.24264,0.35355 -1.41421,-2.82843 -1.41421,-7.07107 -0.35355,-9.54594 1.06066,-2.47487 3.18198,-6.71752 3.18198,-6.71752 z"
       id="path1503"
       inkscape:connector-curvature="0" />
    <path
       style="fill:none;stroke:#000000;stroke-width:1px;stroke-linecap:butt;stroke-linejoin:miter;stroke-opacity:1"
       d="m 110.22289,-230.5195 -8.48529,4.24264 -3.535533,5.3033 -2.82843,4.59619 c 0,0 -2.12132,-8.48528 -0.7071,-13.08147 1.41421,-4.5962 3.53553,-10.96016 3.88908,-16.26346 0.35356,-5.3033 2.828433,-7.77817 -2.12132,-15.55635 -4.94974,-7.77817 -8.83883,-9.54594 -8.83883,-9.54594 l -8.83884,-3.18198 c 0,0 -4.24264,-0.35355 -7.77817,7.07107 -3.53553,7.42462 -12.72792,22.62742 -12.72792,22.62742 0,0 -2.47488,2.82842 -1.41422,11.66726 1.06066,8.83883 1.76777,19.79899 2.82843,22.98097"
       id="path1501"
       inkscape:connector-curvature="0" />
    <path
       style="fill:#000000;fill-opacity:0.5098038;stroke:#000000;stroke-width:1px;stroke-linecap:butt;stroke-linejoin:miter;stroke-opacity:1"
       d="m 196.78407,-293.18572 c 0,0 -20,-6 -30.5,10.75 -10.5,16.75 -11.75,24 -19.25,40.75 -7.5,16.75 -9.25,19.75 -9.25,19.75 0,0 -0.5,-7.75 -10.5,-10.5 -10,-2.75 -10,-1.75 -12.25,-7 -2.25,-5.25 -4,-12.75 -4,-12.75 0,0 -0.5,-7 -1.5,-9.75 -1,-2.75 -4.25,-10 -4.25,-10 0,0 -10.500003,-8.5 -16.750003,-9.5 -6.25,-1 -15.25,-1 -15.25,-0.75 0,0.25 -1.5,-0.5 -1.5,-0.5 l 1.5,-4.25 c 0,0 13.5,1.25 14.75,0.75 1.25,-0.5 29.259883,-8.32695 47.644663,-15.39801 18.38478,-7.07107 24.04163,-8.48529 24.04163,-8.48529 0,0 7.07107,-4.24264 21.2132,5.65686 14.14214,9.89949 15.85051,11.22644 15.85051,11.22644 z"
       id="path1505"
       inkscape:connector-curvature="0" />
    <path
       style="fill:#ffffff;fill-opacity:1;stroke:#000000;stroke-width:1.34914362;stroke-linecap:square;stroke-linejoin:miter;stroke-miterlimit:4;stroke-dasharray:none;stroke-dashoffset:0;stroke-opacity:0.99462364"
       d="m 268.23626,-39.783038 c -12.88994,-5.19871 -24.04015,-13.73544 -48.00462,-36.75293 -9.36098,-8.99107 -24.02569,-21.58318 -32.58825,-27.982492 -24.73584,-18.48653 -30.50001,-27.28307 -45.25791,-69.06683 -4.37473,-12.38607 -4.77832,-14.81724 -4.92597,-29.67339 -0.14313,-14.40199 0.17025,-16.77642 2.84902,-21.5863 1.65542,-2.97239 7.0119,-14.75854 11.90328,-26.19145 9.3782,-21.92015 16.43413,-33.86021 22.74082,-38.48204 2.95214,-2.16345 5.8356,-2.79146 12.81687,-2.79146 8.71266,0 9.494,0.29303 23.84836,8.94385 8.16232,4.91912 17.26904,10.20454 20.23716,11.74538 l 5.39657,2.80153 -6.94005,0.0596 c -12.73111,0.10938 -34.57059,2.8757 -38.4205,4.86656 -4.45542,2.30399 -6.58148,5.76313 -6.58148,10.70822 0,5.22065 1.57187,7.52784 17.3625,25.48462 7.90232,8.98636 16.66571,19.16622 19.47421,22.62192 6.25773,7.69978 10.64773,9.86401 26.79863,13.21151 11.91766,2.4701 13.63785,2.50292 32.15386,0.61348 10.75942,-1.09792 26.2477,-3.59335 34.41839,-5.54538 19.72783,-4.71312 22.85692,-3.83258 24.23799,6.82062 0.89528,6.90597 4.18452,17.06004 8.35705,25.79864 2.47015,5.17327 4.49118,10.65399 4.49118,12.17939 0,6.27767 -7.68828,12.12433 -21.4264,16.29401 -3.42708,1.04015 -6.39681,1.89776 -6.59943,1.9058 -0.20261,0.008 0.60311,-1.46809 1.79048,-3.28026 5.45425,-8.32422 -2.21217,-14.89723 -17.39083,-14.91051 -7.93704,-0.007 -9.56557,0.41449 -11.67998,3.02258 -5.07065,6.25456 1.55726,12.4845 13.28202,12.4845 4.15155,0 5.43395,0.5789 5.98963,2.70386 0.47409,1.81291 1.42009,2.43024 2.87094,1.8735 1.6314,-0.62603 1.94389,-0.25711 1.26991,1.49926 -0.74852,1.95061 -0.36689,2.16496 2.3457,1.31752 1.78182,-0.55665 3.5859,-1.54848 4.00909,-2.20405 0.86305,-1.337 9.55651,-4.08329 10.36535,-3.27447 0.28618,0.28619 -0.21947,4.28064 -1.12365,8.87657 l -1.644,8.35623 -3.26948,-4.17764 c -2.34688,-2.99874 -4.39997,-4.17763 -7.27556,-4.17763 -2.20334,0 -5.30938,-1.21423 -6.90233,-2.69829 -4.0541,-3.77697 -7.82847,-3.43655 -29.3567,2.64767 -18.19312,5.14165 -38.04279,9.49462 -43.29581,9.49462 -1.81944,0 -0.14531,-2.39964 6.08645,-8.72411 4.72792,-4.79826 11.42598,-12.98068 14.88458,-18.18317 l 6.28837,-9.45904 6.71141,8.06458 c 3.69129,4.43553 7.2265,8.06459 7.85603,8.06459 0.62953,0 0.82929,-3.92817 0.44391,-8.72926 -0.93388,-11.63415 0.87533,-14.32492 11.64501,-17.31915 10.03266,-2.78933 11.92077,-2.81754 16.84078,-0.25158 6.09783,3.18024 7.31543,2.28822 2.66014,-1.94884 -5.87967,-5.35145 -17.39961,-7.90789 -25.6687,-5.69624 -9.72021,2.59976 -18.33831,9.08674 -23.37897,17.59773 -9.37761,15.83379 -26.90169,35.23535 -31.82565,35.23535 -1.03279,0 -1.8778,0.60711 -1.8778,1.34914 0,2.08856 -20.96751,1.64391 -26.23339,-0.55632 -2.50823,-1.048 -5.87845,-3.22349 -7.48938,-4.83442 -3.83425,-3.83426 -4.84642,-2.56985 -2.95841,3.69561 4.34858,14.43101 21.54907,25.349062 52.8709,33.559922 14.46504,3.79195 32.14389,4.16844 46.54545,0.99124 4.45218,-0.98221 11.62628,-1.79482 15.94246,-1.80578 6.45077,-0.0163 8.69126,0.62356 12.58744,3.59532 3.91481,2.98596 4.9523,3.27951 5.96046,1.68643 0.93418,-1.47618 1.22548,-1.19895 1.24129,1.18139 0.0108,1.7106 -2.10061,7.10751 -4.69327,11.99311 -4.46667,8.41695 -4.66882,9.36846 -3.8537,18.13881 0.72142,7.76224 0.52907,9.25588 -1.19202,9.25588 -3.21772,0 -4.83228,-2.87368 -5.82682,-10.37083 -0.68296,-5.14842 -0.35836,-8.05511 1.26241,-11.30399 2.37213,-4.75505 2.75161,-7.50018 1.16991,-8.46312 -0.55652,-0.33881 -11.33281,0.20435 -23.9473,1.20704 -12.61449,1.00267 -24.06355,1.85116 -25.44235,1.88553 -1.83926,0.0459 -0.67148,1.71272 4.38472,6.25867 6.42589,5.77744 6.89038,6.6208 6.87321,12.47958 -0.0201,6.83926 -1.14795,12.3876 -2.49994,12.29778 -0.46997,-0.0312 -5.73196,-2.02392 -11.69329,-4.4282 z"
       id="path1776"
       inkscape:connector-curvature="0" />
    <path
       style="fill:#f5f5f5;fill-opacity:1;stroke:#000000;stroke-width:1.34914362;stroke-linecap:square;stroke-linejoin:miter;stroke-miterlimit:4;stroke-dasharray:none;stroke-dashoffset:0;stroke-opacity:0.99462364"
       d="m 364.06897,-244.00561 c -7.82273,-6.00003 -43.76457,-19.19746 -52.76402,-19.37434 -3.09189,-0.0608 46.10962,-17.33115 49.66943,-17.43462 0.5229,-0.0152 1.23898,1.94549 1.59129,4.35708 0.35231,2.41159 1.63291,10.97352 2.84577,19.02651 1.21287,8.05299 2.01363,14.83339 1.77946,15.06756 -0.23417,0.23417 -1.63904,-0.50482 -3.12193,-1.64219 z"
       id="path1786"
       inkscape:connector-curvature="0" />
  </g>
  <g
     inkscape:groupmode="layer"
     id="layer7"
     inkscape:label="hat"
     style="display:inline"
     transform="translate(0,384)">
    <path
       style="fill:#292929;fill-opacity:1;stroke:#000000;stroke-width:1px;stroke-linecap:butt;stroke-linejoin:miter;stroke-opacity:1"
       d="m 72.746227,-286.73449 15.20279,1.06066 16.617013,-4.94975 27.40039,-9.54594 19.09188,-7.42462 c 0,0 8.13173,-3.35876 12.9047,-3.18198 4.77297,0.17677 8.83884,0.17677 12.72792,2.82842 3.88909,2.65166 14.14214,10.42983 17.85445,12.72793 3.71231,2.29809 27.22361,17.14734 32.17336,19.44543 4.94975,2.2981 37.29988,24.04163 75.8372,12.37437 38.53732,-11.66726 61.87184,-21.56675 86.26703,-25.10229 24.39518,-3.53553 49.85103,-4.24264 57.27565,2.47488 7.42462,6.71751 16.26345,14.14213 14.49569,35.35533 -1.76777,21.21321 -3.18198,31.81981 -8.48528,37.12311 -5.30331,5.3033 -15.2028,10.6066 -21.92031,11.66726 -6.71752,1.06066 -32.17336,-1.76776 -32.17336,-1.76776 l -9.19239,-3.18199 -0.0389,4.27071 8.125,2.875 10.25,4 12.875,1.375 c 0,0 13.625,0.125 15,-0.5 1.375,-0.625 18,-8.875 22.5,-15.125 4.5,-6.25 7.375,-19.875 7.375,-19.875 0,0 2,-9 1,-20.25 -0.99999,-11.25 -1.62499,-22 -3.24999,-25.625 -1.625,-3.625 -6.25,-10.5 -9.375,-12.75 -3.125,-2.25 -9,-6.125 -17.75,-9.125 -8.75,-3 -28.625,-10.5 -28.625,-10.5 l -28.75,-9 -13.875,-4.375 -4.375,-3.875 -15.5,-30.375 -0.75,-1 -27.5,-0.125 -61.875,-0.125 -23.5,-0.375 -43.625,0.125 -92.875003,-0.375 -1.875,-0.125 c 0,0 -14.75,26.125 -16.875,31.375 -2.125,5.25 -3.125,9.375 -3.75,12.875 -0.625,3.5 -0.75,8 -0.75,8 l 1.375,8.625 z"
       id="path1517"
       inkscape:connector-curvature="0" />
    <path
       style="fill:#e6e6e6;fill-opacity:1;stroke:#000000;stroke-width:1px;stroke-linecap:butt;stroke-linejoin:miter;stroke-opacity:1"
       d="m 363.01356,-282.1383 1.76777,10.42983 0.7071,11.49048 2.47488,12.37437 1.06066,6.71752 6.18718,5.12652 c 0,0 11.49049,11.66726 12.37437,15.9099 0.88389,4.24264 0.88389,11.84404 0.88389,11.84404 l 0.35355,1.06066 9.54594,3.71231 20.5061,1.59099 c 0,0 13.96536,0 17.85444,-1.76777 3.88909,-1.76776 11.13694,-6.0104 13.25826,-7.77817 2.12132,-1.76777 4.77297,-3.88909 7.07106,-10.78338 2.2981,-6.89429 3.35876,-24.21841 3.53554,-27.57716 0.17677,-3.35876 0.35355,-13.25825 -0.88389,-17.5009 -1.23743,-4.24264 -10.07627,-18.03122 -16.61701,-20.68287 -6.54073,-2.65165 -16.08668,-3.18198 -16.08668,-3.18198 0,0 -17.32411,0.17678 -21.38998,0.70711 -4.06586,0.53033 -18.03122,2.12132 -18.03122,2.12132 l -19.09188,4.06586 -3.71231,1.06066 z"
       id="path1519"
       inkscape:connector-curvature="0" />
    <path
       style="fill:#ff0000;fill-opacity:0.5;stroke:#000000;stroke-width:1px;stroke-linecap:butt;stroke-linejoin:miter;stroke-opacity:1"
       d="m 309.90907,-356.31072 c 0,0 13.25,14.75 24.875,21.375 11.625,6.625 15.375,8 17.75,7.75 2.375,-0.25 3.375,-0.375 3.875,-1.625 0.5,-1.25 0.625,-2.125 0.625,-2.125 l -13,-25.25 -0.375,-0.375 -33.75,-0.5 z"
       id="path1521"
       inkscape:connector-curvature="0" />
  </g>
  <path
     style="fill:none;stroke:none;stroke-width:1px;stroke-linecap:butt;stroke-linejoin:miter;stroke-opacity:1"
     d="m 296.28407,167.31428 -17,24.5 25.25,-2 3,-11.25 z"
     id="path1641"
     inkscape:connector-curvature="0" />
  <path
     style="fill:none;stroke:none;stroke-width:1px;stroke-linecap:butt;stroke-linejoin:miter;stroke-opacity:1"
     d="m 307.53407,178.56428 v 0 l 33,-15.25 10.25,-14.25 -4,-17 -35.5,33 z"
     id="path1645"
     inkscape:connector-curvature="0" />
  <path
     style="fill:none;stroke:none;stroke-width:1px;stroke-linecap:butt;stroke-linejoin:miter;stroke-opacity:1"
     d="m 296.28407,167.31428 -23.25,-19.75 12.5,-23.25 z"
     id="path1647"
     inkscape:connector-curvature="0" />
  <path
     style="fill:none;stroke:none;stroke-width:1px;stroke-linecap:butt;stroke-linejoin:miter;stroke-opacity:1"
     d="m 195.71605,118.72849 33.06802,22.33579 16.25,-24 c 0,0 -49.31802,1.66421 -49.31802,1.66421 z"
     id="path1649"
     inkscape:connector-curvature="0" />
  <path
     style="fill:none;stroke:none;stroke-width:1px;stroke-linecap:butt;stroke-linejoin:miter;stroke-opacity:1"
     d="m 252.78407,150.81428 -18,37.25 -23.5,-40.75 17.5,-6.25 z"
     id="path1651"
     inkscape:connector-curvature="0" />
  <path
     style="fill:none;stroke:none;stroke-width:1px;stroke-linecap:butt;stroke-linejoin:miter;stroke-opacity:1"
     d="m 245.03407,117.06428 -0.5,14.5 -15.75,9.5 z"
     id="path1653"
     inkscape:connector-curvature="0" />
  <path
     style="fill:none;stroke:none;stroke-width:1px;stroke-linecap:butt;stroke-linejoin:miter;stroke-opacity:1"
     d="m 244.53407,131.56428 28.5,16 -20.25,3.25 z"
     id="path1655"
     inkscape:connector-curvature="0" />
  <path
     style="fill:none;stroke:none;stroke-width:1px;stroke-linecap:butt;stroke-linejoin:miter;stroke-opacity:1"
     d="m 273.03407,147.56428 6.25,44.25"
     id="path1657"
     inkscape:connector-curvature="0" />
  <path
     style="fill:none;stroke:none;stroke-width:1px;stroke-linecap:butt;stroke-linejoin:miter;stroke-opacity:1"
     d="m 252.78407,150.81428 26.5,41"
     id="path1659"
     inkscape:connector-curvature="0" />
  <path
     style="fill:none;stroke:none;stroke-width:1px;stroke-linecap:butt;stroke-linejoin:miter;stroke-opacity:1"
     d="m 234.78407,188.06428 44.5,3.75"
     id="path1661"
     inkscape:connector-curvature="0" />
  <path
     style="fill:none;stroke:none;stroke-width:1px;stroke-linecap:butt;stroke-linejoin:miter;stroke-opacity:1"
     d="m 211.28407,147.31428 -24.25,-10.5 8.68198,-18.08579 z"
     id="path1663"
     inkscape:connector-curvature="0" />
  <path
     style="fill:none;stroke:none;stroke-width:1px;stroke-linecap:butt;stroke-linejoin:miter;stroke-opacity:1"
     d="m 345.53407,172.31428 -4,6.25 13.75,-0.25 z"
     id="path1665"
     inkscape:connector-curvature="0" />
  <path
     style="fill:none;stroke:none;stroke-width:1px;stroke-linecap:butt;stroke-linejoin:miter;stroke-opacity:1"
     d="m 366.78407,184.81428 16.75,-27.25 1.75,37.5 z"
     id="path1667"
     inkscape:connector-curvature="0" />
  <path
     style="fill:none;stroke:none;stroke-width:1px;stroke-linecap:butt;stroke-linejoin:miter;stroke-opacity:1"
     d="m 366.78407,184.81428 -11.5,-6.5 0.5,24.25 z"
     id="path1669"
     inkscape:connector-curvature="0" />
  <path
     style="fill:none;stroke:none;stroke-width:1px;stroke-linecap:butt;stroke-linejoin:miter;stroke-opacity:1"
     d="m 355.78407,202.56428 29.5,-7.5"
     id="path1671"
     inkscape:connector-curvature="0" />
  <path
     style="fill:none;stroke:none;stroke-width:1px;stroke-linecap:butt;stroke-linejoin:miter;stroke-opacity:1"
     d="m 355.78407,202.56428 29.5,-7.5 -13.75,30 z"
     id="path1675"
     inkscape:connector-curvature="0" />
  <path
     style="fill:none;stroke:none;stroke-width:1px;stroke-linecap:butt;stroke-linejoin:miter;stroke-opacity:1"
     d="m 346.78407,209.81428 6.5,13.25 2.5,-20.5 z"
     id="path1677"
     inkscape:connector-curvature="0" />
  <path
     style="fill:none;stroke:none;stroke-width:1px;stroke-linecap:butt;stroke-linejoin:miter;stroke-opacity:1"
     d="m 341.53407,178.56428 -12.25,1.25 21.5,-30.75 28.25,17.25 -12.25,18.5 -21.25,-12.5 z"
     id="path1679"
     inkscape:connector-curvature="0" />
  <path
     style="fill:none;stroke:none;stroke-width:1px;stroke-linecap:butt;stroke-linejoin:miter;stroke-opacity:1"
     d="m 306.28407,166.56428 5,-1.5 1.5,-29.75 -8,-14.25 -16.75,10.25 2.75,10.5 h 10.75 z"
     id="path1681"
     inkscape:connector-curvature="0" />
  <path
     style="fill:none;stroke:none;stroke-width:1px;stroke-linecap:butt;stroke-linejoin:miter;stroke-opacity:1"
     d="m 355.28407,178.31428 5.25462,0.97561 3.18198,-6.01041 7.24784,3.35876 -4.18444,8.17604 z"
     id="path1683"
     inkscape:connector-curvature="0" />
  <path
     style="fill:none;stroke:none;stroke-width:1px;stroke-linecap:butt;stroke-linejoin:miter;stroke-opacity:1"
     d="m 364.251,140.5758 -6.54074,12.37436"
     id="path1687"
     inkscape:connector-curvature="0" />
  <path
     style="fill:none;stroke:#000000;stroke-width:1px;stroke-linecap:butt;stroke-linejoin:miter;stroke-opacity:1"
     d="m 339.59065,246.90698 c 0,0 -4.30658,22.1573 -4.30658,22.1573"
     id="path1689"
     inkscape:connector-curvature="0" />
  <path
     style="fill:#80e5ff;fill-opacity:0.70114938;stroke:none;stroke-width:0.47699431;stroke-linecap:square;stroke-linejoin:miter;stroke-miterlimit:4;stroke-dasharray:none;stroke-dashoffset:0;stroke-opacity:1"
     d="m 223.59651,167.19717 c -6.08734,-10.55249 -10.90978,-19.33597 -10.71655,-19.51885 0.19323,-0.18289 3.85281,-1.56843 8.13239,-3.07898 l 7.78106,-2.74646 11.06022,4.45147 c 6.08312,2.44831 11.23117,4.59798 11.44012,4.77704 0.29354,0.25154 -12.33101,27.18085 -15.93258,33.98562 -0.69401,1.31128 -0.74057,1.24057 -11.76466,-17.86984 z"
     id="path1710"
     inkscape:connector-curvature="0" />
  <path
     style="fill:#00ccff;fill-opacity:0.70114938;stroke:none;stroke-width:0.47699431;stroke-linecap:square;stroke-linejoin:miter;stroke-miterlimit:4;stroke-dasharray:none;stroke-dashoffset:0;stroke-opacity:1"
     d="m 356.34395,194.38775 c -0.17669,-2.96466 -0.25221,-7.46911 -0.16781,-10.0099 l 0.15344,-4.61962 4.29295,2.40813 c 2.36112,1.32447 4.46131,2.56282 4.66709,2.75188 0.20577,0.18906 -1.65054,3.60986 -4.12514,7.60177 l -4.49928,7.25802 z"
     id="path1712"
     inkscape:connector-curvature="0" />
  <path
     style="fill:#00ccff;fill-opacity:0.70114938;stroke:none;stroke-width:0.47699431;stroke-linecap:square;stroke-linejoin:miter;stroke-miterlimit:4;stroke-dasharray:none;stroke-dashoffset:0;stroke-opacity:1"
     d="m 258.67415,138.74336 -13.22745,-7.4622 -0.003,-5.48544 c -0.001,-3.01699 0.12371,-5.9566 0.27814,-6.53248 l 0.28076,-1.04705 2.34064,0.92259 c 3.55432,1.40099 12.49225,3.67684 17.83405,4.54106 2.62347,0.42444 7.81724,0.80584 11.54172,0.84755 l 6.77177,0.0759 -2.64484,5.00844 c -6.41793,12.15342 -8.99535,16.69139 -9.45345,16.64434 -0.2702,-0.0277 -6.44362,-3.40844 -13.71871,-7.51266 z"
     id="path1718"
     inkscape:connector-curvature="0" />
  <path
     style="fill:#aaeeff;fill-opacity:0.70114938;stroke:none;stroke-width:0.47699431;stroke-linecap:square;stroke-linejoin:miter;stroke-miterlimit:4;stroke-dasharray:none;stroke-dashoffset:0;stroke-opacity:1"
     d="m 186.31651,134.23132 c -1.49049,-3.90608 0.88152,-9.96317 4.86647,-12.42688 1.24655,-0.77068 2.37226,-1.29544 2.50157,-1.16613 0.12931,0.12931 -1.36031,3.54276 -3.31027,7.58545 -3.39636,7.04137 -3.56693,7.2939 -4.05777,6.00756 z"
     id="path1720"
     inkscape:connector-curvature="0" />
  <path
     style="fill:#aaeeff;fill-opacity:0.70114938;stroke:none;stroke-width:0.47699431;stroke-linecap:square;stroke-linejoin:miter;stroke-miterlimit:4;stroke-dasharray:none;stroke-dashoffset:0;stroke-opacity:1"
     d=""
     id="path1722"
     inkscape:connector-curvature="0" />
  <path
     style="fill:#aaeeff;fill-opacity:0.70114938;stroke:none;stroke-width:0.47699431;stroke-linecap:square;stroke-linejoin:miter;stroke-miterlimit:4;stroke-dasharray:none;stroke-dashoffset:0;stroke-opacity:1"
     d="m 331.28738,178.52583 c 0,-0.61024 19.6426,-28.40638 19.95879,-28.24357 2.653,1.36602 25.83267,15.78235 25.83267,16.06633 0,0.48089 -4.64316,8.09041 -5.47582,8.97414 -0.49499,0.52536 -1.08323,0.39188 -3.40447,-0.77253 -4.85463,-2.43526 -4.71447,-2.45346 -6.37049,0.8271 -2.05266,4.06628 -2.86979,3.99447 -11.32266,-0.99512 -2.6786,-1.58114 -5.08082,-2.74461 -5.33827,-2.5855 -0.25744,0.1591 -1.23788,1.55652 -2.17876,3.10537 -1.25539,2.0666 -2.05625,2.88337 -3.00913,3.06887 -2.49034,0.48484 -8.69186,0.88075 -8.69186,0.55491 z"
     id="path1724"
     inkscape:connector-curvature="0" />
  <path
     style="fill:#aaeeff;fill-opacity:0.70114938;stroke:none;stroke-width:0.47699431;stroke-linecap:square;stroke-linejoin:miter;stroke-miterlimit:4;stroke-dasharray:none;stroke-dashoffset:0;stroke-opacity:1"
     d="m 306.74092,164.82799 c -0.20172,-0.58427 -4.55019,-23.10437 -4.55019,-23.56477 0,-0.11203 -2.43794,-0.20368 -5.41764,-0.20368 h -5.41764 l -1.05619,-3.9352 c -0.58091,-2.16437 -1.09437,-4.30167 -1.14103,-4.74958 -0.0599,-0.57534 2.18344,-2.20606 7.64305,-5.55578 l 7.7279,-4.7414 3.77138,6.74826 3.77139,6.74826 -0.70389,14.30983 c -0.38714,7.87041 -0.83957,14.4482 -1.00541,14.61733 -0.16583,0.16912 -0.99929,0.45452 -1.85214,0.63422 -1.09669,0.23109 -1.61472,0.14108 -1.76959,-0.30749 z"
     id="path1726"
     inkscape:connector-curvature="0" />
  <path
     style="fill:#87cdde;fill-opacity:0.70114938;stroke:none;stroke-width:0.47699431;stroke-linecap:square;stroke-linejoin:miter;stroke-miterlimit:4;stroke-dasharray:none;stroke-dashoffset:0;stroke-opacity:1"
     d="m 237.698,129.21948 6.06093,-8.97809 0.14467,4.0889 c 0.24077,6.80505 0.40844,6.51583 -6.04901,10.43412 -3.11187,1.88824 -5.78385,3.43316 -5.93773,3.43316 -0.15388,0 2.44763,-4.04014 5.78114,-8.97809 z"
     id="path1728"
     inkscape:connector-curvature="0" />
  <path
     style="fill:#87cdde;fill-opacity:0.70114938;stroke:none;stroke-width:0.47699431;stroke-linecap:square;stroke-linejoin:miter;stroke-miterlimit:4;stroke-dasharray:none;stroke-dashoffset:0;stroke-opacity:1"
     d="m 279.54462,188.18952 c -0.67067,-3.76846 -5.46109,-38.26155 -5.33175,-38.39089 0.22631,-0.22631 20.77263,17.21193 20.79915,17.65283 0.0131,0.21765 -3.39857,5.32758 -7.58147,11.35541 -7.36903,10.61924 -7.61399,10.91069 -7.88593,9.38265 z"
     id="path1730"
     inkscape:connector-curvature="0" />
  <path
     style="fill:#87cdde;fill-opacity:0.70114938;stroke:none;stroke-width:0.47699431;stroke-linecap:square;stroke-linejoin:miter;stroke-miterlimit:4;stroke-dasharray:none;stroke-dashoffset:0;stroke-opacity:1"
     d="m 346.89754,207.98317 c -0.11995,-0.21061 -0.92215,-2.5294 -1.78267,-5.15287 -2.35678,-7.18512 -6.09227,-16.50553 -7.03084,-17.54263 -2.80024,-3.09423 -7.05589,-3.12878 -18.96,-0.15393 -4.72224,1.18009 -9.64912,2.47066 -10.94861,2.86793 -1.2995,0.39727 -2.40832,0.67652 -2.46406,0.62056 -0.0557,-0.056 0.47087,-2.22888 1.17023,-4.8287 l 1.27157,-4.72694 14.93571,-6.89003 c 8.21465,-3.78951 15.00865,-6.81393 15.09779,-6.72092 0.0891,0.093 -2.16901,3.48724 -5.01812,7.54273 -2.8491,4.0555 -5.1164,7.43742 -5.03843,7.51539 0.078,0.078 3.2043,-0.18144 6.9474,-0.57646 3.7431,-0.39502 9.68046,-0.71822 13.19412,-0.71822 h 6.38847 v 5.64905 c 0,3.10697 0.13878,8.22995 0.30839,11.3844 l 0.30839,5.73536 -3.69724,3.04467 c -4.02049,3.31088 -4.35637,3.52255 -4.6821,2.95061 z"
     id="path1732"
     inkscape:connector-curvature="0" />
  <path
     style="fill:#87cdde;fill-opacity:0.70114938;stroke:none;stroke-width:0.47699431;stroke-linecap:square;stroke-linejoin:miter;stroke-miterlimit:4;stroke-dasharray:none;stroke-dashoffset:0;stroke-opacity:1"
     d="m 376.60184,189.41758 c -4.32872,-2.43796 -8.08505,-4.51438 -8.3474,-4.61429 -0.26235,-0.0999 2.2061,-4.2196 5.48544,-9.15488 3.27933,-4.93528 5.98497,-9.33292 6.01253,-9.77253 0.0668,-1.06631 2.61361,-5.37833 2.96752,-5.02442 0.20246,0.20247 1.95595,32.68448 1.77914,32.95735 -0.0147,0.0228 -3.5685,-1.95328 -7.89723,-4.39123 z"
     id="path1734"
     inkscape:connector-curvature="0" />
  <path
     style="fill:#216778;fill-opacity:0.70114938;stroke:none;stroke-width:0.47699431;stroke-linecap:square;stroke-linejoin:miter;stroke-miterlimit:4;stroke-dasharray:none;stroke-dashoffset:0;stroke-opacity:1"
     d="m 231.35708,186.04045 c -1.89172,-0.96046 -5.92226,-4.88251 -8.9708,-8.72934 -1.35138,-1.70526 -6.64718,-7.8292 -11.76845,-13.60875 -17.59851,-19.86064 -21.62443,-24.56012 -21.30963,-24.87491 0.28153,-0.28153 20.92693,8.8047 21.5534,9.48586 0.73481,0.79896 22.23522,38.15014 22.05965,38.32274 -0.0733,0.072 -0.77713,-0.196 -1.56417,-0.5956 z"
     id="path1738"
     inkscape:connector-curvature="0" />
  <path
     style="fill:#216778;fill-opacity:0.70114938;stroke:none;stroke-width:0.47699431;stroke-linecap:square;stroke-linejoin:miter;stroke-miterlimit:4;stroke-dasharray:none;stroke-dashoffset:0;stroke-opacity:1"
     d="m 368.16392,158.88036 -9.6304,-5.93505 2.81132,-5.33934 c 1.54623,-2.93664 3.02174,-5.40947 3.2789,-5.4952 0.25717,-0.0857 2.23416,1.02689 4.39333,2.47246 4.00418,2.68082 13.49908,12.27715 13.21229,13.35342 -0.22625,0.84903 -3.93297,6.9583 -4.19654,6.91655 -0.13117,-0.0208 -4.57217,-2.70856 -9.8689,-5.97284 z"
     id="path1740"
     inkscape:connector-curvature="0" />
  <path
     style="fill:#216778;fill-opacity:0.70114938;stroke:none;stroke-width:0.47699431;stroke-linecap:square;stroke-linejoin:miter;stroke-miterlimit:4;stroke-dasharray:none;stroke-dashoffset:0;stroke-opacity:1"
     d="m 360.62253,223.22159 c -3.41051,-0.39124 -6.26737,-0.76973 -6.34858,-0.84109 -0.0812,-0.0714 0.32765,-4.12626 0.90858,-9.0109 0.58092,-4.88463 1.09727,-8.82494 1.14745,-8.75624 0.0502,0.0687 2.41098,3.45195 5.24624,7.51833 2.83526,4.06638 5.89166,8.41299 6.79199,9.65913 l 1.63696,2.26573 -1.59085,-0.0618 c -0.87498,-0.034 -4.38128,-0.38191 -7.79179,-0.77315 z"
     id="path1742"
     inkscape:connector-curvature="0" />
  <path
     style="fill:#216778;fill-opacity:0.70114938;stroke:none;stroke-width:0.47699431;stroke-linecap:square;stroke-linejoin:miter;stroke-miterlimit:4;stroke-dasharray:none;stroke-dashoffset:0;stroke-opacity:1"
     d="m 213.23129,129.67898 -15.26381,-10.32268 22.65723,-0.75589 c 12.46147,-0.41574 22.7061,-0.72461 22.76583,-0.68639 0.0938,0.06 -14.42779,21.66517 -14.76917,21.97358 -0.0694,0.0627 -6.99498,-4.53115 -15.39008,-10.20862 z"
     id="path1744"
     inkscape:connector-curvature="0" />
  <path
     style="fill:#216778;fill-opacity:0.70114938;stroke:none;stroke-width:0.47699431;stroke-linecap:square;stroke-linejoin:miter;stroke-miterlimit:4;stroke-dasharray:none;stroke-dashoffset:0;stroke-opacity:1"
     d="m 302.07715,172.1727 -5.08439,-5.11697 -3.07272,-12.29821 -3.07271,-12.29821 5.07343,0.13485 5.07343,0.13486 2.32128,12.16335 c 1.27671,6.68985 2.38286,12.23113 2.45811,12.31396 0.0752,0.0828 1.03873,-0.0923 2.14108,-0.3891 1.10235,-0.29683 2.05889,-0.47192 2.12565,-0.38909 0.0668,0.0828 -0.55367,2.56056 -1.3787,5.50607 l -1.50007,5.35547 z"
     id="path1746"
     inkscape:connector-curvature="0" />
  <path
     style="fill:#fdfefe;fill-opacity:0.70114938;stroke:none;stroke-width:0.47699431;stroke-linecap:square;stroke-linejoin:miter;stroke-miterlimit:4;stroke-dasharray:none;stroke-dashoffset:0;stroke-opacity:1"
     d="m 312.22948,161.06329 c 0.012,-1.16405 0.30771,-7.4789 0.65707,-14.03299 l 0.6352,-11.91653 -3.96903,-7.044 c -3.01631,-5.35315 -3.77515,-7.04189 -3.16129,-7.03525 0.44426,0.005 2.95422,0.31757 5.57768,0.69504 7.64601,1.10011 33.24585,9.14144 33.24138,10.44166 -7.5e-4,0.21901 -6.83642,6.73201 -15.19039,14.47335 -8.35396,7.74134 -15.7793,14.62867 -16.50075,15.30518 l -1.31174,1.23001 z"
     id="path1748"
     inkscape:connector-curvature="0" />
  <path
     style="fill:#fdfefe;fill-opacity:0.70114938;stroke:none;stroke-width:0.47699431;stroke-linecap:square;stroke-linejoin:miter;stroke-miterlimit:4;stroke-dasharray:none;stroke-dashoffset:0;stroke-opacity:1"
     d="m 364.30652,213.44342 c -3.71437,-5.31252 -6.81406,-9.8604 -6.88818,-10.1064 -0.12765,-0.42364 25.7951,-7.17146 26.15761,-6.80895 0.24086,0.24086 -11.87691,26.57449 -12.22861,26.57449 -0.15807,0 -3.32644,-4.34661 -7.04082,-9.65914 z"
     id="path1750"
     inkscape:connector-curvature="0" />
  <path
     style="fill:#fdfefe;fill-opacity:0.70114938;stroke:none;stroke-width:0.47699431;stroke-linecap:square;stroke-linejoin:miter;stroke-miterlimit:4;stroke-dasharray:none;stroke-dashoffset:0;stroke-opacity:1"
     d="m 210.49672,144.30671 c -3.75402,-6.49308 -11.88174,-21.94095 -11.66043,-22.16227 0.14352,-0.14352 6.5535,3.97975 14.24439,9.16282 7.6909,5.18308 14.02518,9.44998 14.07618,9.48201 0.0717,0.045 -7.00183,2.59462 -14.93738,5.38413 -0.29416,0.1034 -1.0694,-0.73661 -1.72276,-1.86669 z"
     id="path1752"
     inkscape:connector-curvature="0" />
  <path
     style="fill:#fdfefe;fill-opacity:0.70114938;stroke:none;stroke-width:0.47699431;stroke-linecap:square;stroke-linejoin:miter;stroke-miterlimit:4;stroke-dasharray:none;stroke-dashoffset:0;stroke-opacity:1"
     d="m 343.21224,177.53938 c 0,-0.32646 2.46224,-4.04423 2.67845,-4.04423 0.17647,0 6.4826,3.80018 6.82169,4.11085 0.10931,0.10016 -1.9835,0.1821 -4.6507,0.1821 -2.66719,0 -4.84944,-0.11193 -4.84944,-0.24872 z"
     id="path1756"
     inkscape:connector-curvature="0" />
  <path
     style="fill:#fdfefe;fill-opacity:0.70114938;stroke:none;stroke-width:0.47699431;stroke-linecap:square;stroke-linejoin:miter;stroke-miterlimit:4;stroke-dasharray:none;stroke-dashoffset:0;stroke-opacity:1"
     d="m 354.11134,150.29489 -2.69524,-1.65411 -1.4764,-6.29484 c -0.81202,-3.46216 -1.61104,-6.99022 -1.77559,-7.84012 l -0.29919,-1.54527 5.01102,2.09943 c 4.86643,2.03885 10.53512,5.3495 10.26493,5.99496 -0.76986,1.83911 -5.80552,10.96559 -6.0334,10.93476 -0.16549,-0.0224 -1.51375,-0.78506 -2.99613,-1.69481 z"
     id="path1758"
     inkscape:connector-curvature="0" />
  <path
     style="fill:#fdfefe;fill-opacity:0.70114938;stroke:none;stroke-width:0.47699431;stroke-linecap:square;stroke-linejoin:miter;stroke-miterlimit:4;stroke-dasharray:none;stroke-dashoffset:0;stroke-opacity:1"
     d="m 249.79067,141.94813 c -1.90746,-4.47847 -3.40098,-8.20345 -3.31894,-8.27775 0.17156,-0.15537 24.21027,13.29659 24.0501,13.45833 -0.0581,0.0587 -3.52781,0.65321 -7.71037,1.32111 -4.18257,0.6679 -8.04297,1.31035 -8.57867,1.42767 -0.85676,0.18763 -1.39151,-0.76694 -4.44212,-7.92936 z"
     id="path1760"
     inkscape:connector-curvature="0" />
  <path
     style="fill:#55ffdd;fill-opacity:0.70114938;stroke:none;stroke-width:0.47699431;stroke-linecap:square;stroke-linejoin:miter;stroke-miterlimit:4;stroke-dasharray:none;stroke-dashoffset:0;stroke-opacity:1"
     d="m 387.22563,179.69608 c 0,-1.18056 0.093,-1.66352 0.20672,-1.07324 0.11369,0.59028 0.11369,1.55619 0,2.14647 -0.1137,0.59028 -0.20672,0.10733 -0.20672,-1.07323 z"
     id="path1766"
     inkscape:connector-curvature="0" />
  <path
     style="fill:#2ad4ff;fill-opacity:0.70114938;stroke:none;stroke-width:0.47699431;stroke-linecap:square;stroke-linejoin:miter;stroke-miterlimit:4;stroke-dasharray:none;stroke-dashoffset:0;stroke-opacity:1"
     d="m 353.88185,150.0254 -2.44773,-1.49584 -1.65591,-7.43172 c -0.91075,-4.08744 -1.58137,-7.51989 -1.49027,-7.62766 0.27,-0.31941 8.28504,3.34368 11.3806,5.20125 2.05659,1.2341 2.85341,1.99354 2.83157,2.69871 -0.0402,1.29754 -4.98003,10.18784 -5.64932,10.16719 -0.28666,-0.009 -1.62268,-0.68922 -2.96894,-1.51193 z"
     id="path1768"
     inkscape:connector-curvature="0" />
  <path
     style="fill:#2ad4ff;fill-opacity:0.70114938;stroke:none;stroke-width:0.47699431;stroke-linecap:square;stroke-linejoin:miter;stroke-miterlimit:4;stroke-dasharray:none;stroke-dashoffset:0;stroke-opacity:1"
     d="m 256.7579,189.25114 c -11.21485,-0.96932 -20.46593,-1.85223 -20.55796,-1.96203 -0.092,-0.10979 3.59773,-7.98544 8.19946,-17.50145 6.47955,-13.39919 8.49053,-17.16491 8.91543,-16.6948 0.30175,0.33386 5.66017,8.54898 11.90758,18.25582 6.24741,9.70683 11.67222,18.13174 12.05513,18.72202 0.38291,0.59028 0.51053,1.0439 0.2836,1.00804 -0.22694,-0.0358 -9.58839,-0.85827 -20.80324,-1.8276 z"
     id="path1770"
     inkscape:connector-curvature="0" />
</svg>
