<?xml version="1.0" encoding="UTF-8" standalone="no"?>
<!-- Created with Inkscape (http://www.inkscape.org/) -->

<svg
   xmlns:dc="http://purl.org/dc/elements/1.1/"
   xmlns:cc="http://creativecommons.org/ns#"
   xmlns:rdf="http://www.w3.org/1999/02/22-rdf-syntax-ns#"
   xmlns:svg="http://www.w3.org/2000/svg"
   xmlns="http://www.w3.org/2000/svg"
   xmlns:xlink="http://www.w3.org/1999/xlink"
   xmlns:sodipodi="http://sodipodi.sourceforge.net/DTD/sodipodi-0.dtd"
   xmlns:inkscape="http://www.inkscape.org/namespaces/inkscape"
   width="128"
   height="128"
   viewBox="0 0 128 128"
   version="1.1"
   id="SVGRoot"
   inkscape:version="0.92.3 (2405546, 2018-03-11)"
   sodipodi:docname="rynor.svg">
  <sodipodi:namedview
     id="base"
     pagecolor="#ffffff"
     bordercolor="#666666"
     borderopacity="1.0"
     inkscape:pageopacity="0.0"
     inkscape:pageshadow="2"
     inkscape:zoom="1.4824219"
     inkscape:cx="224.2486"
     inkscape:cy="142.64605"
     inkscape:document-units="px"
     inkscape:current-layer="layer6"
     showgrid="false"
     inkscape:window-width="1299"
     inkscape:window-height="713"
     inkscape:window-x="67"
     inkscape:window-y="27"
     inkscape:window-maximized="1"
     inkscape:grid-bbox="true"
     inkscape:snap-global="true" />
  <defs
     id="defs831">
    <linearGradient
       inkscape:collect="always"
       id="linearGradient1511">
      <stop
         style="stop-color:#636363;stop-opacity:1"
         offset="0"
         id="stop1507" />
      <stop
         style="stop-color:#e6e6e6;stop-opacity:0"
         offset="1"
         id="stop1509" />
    </linearGradient>
    <linearGradient
       inkscape:collect="always"
       xlink:href="#linearGradient1511"
       id="linearGradient1513"
       x1="134.26395"
       y1="101.9129"
       x2="153.31566"
       y2="113.9129"
       gradientUnits="userSpaceOnUse"
       gradientTransform="matrix(0.27801257,0,0,0.27801257,40.378393,29.891837)" />
  </defs>
  <metadata
     id="metadata834">
    <rdf:RDF>
      <cc:Work
         rdf:about="">
        <dc:format>image/svg+xml</dc:format>
        <dc:type
           rdf:resource="http://purl.org/dc/dcmitype/StillImage" />
        <dc:title></dc:title>
        <dc:creator>
          <cc:Agent>
            <dc:title>Ryan C Nordeen</dc:title>
          </cc:Agent>
        </dc:creator>
      </cc:Work>
    </rdf:RDF>
  </metadata>
  <g
     inkscape:groupmode="layer"
     id="layer4"
     inkscape:label="beard1"
     style="display:inline">
    <path
       style="fill:#000000;fill-opacity:0.93103452;stroke:#000000;stroke-width:0.27801257px;stroke-linecap:butt;stroke-linejoin:miter;stroke-opacity:1"
       d="m 78.882591,63.386924 c -0.500919,0.01176 -0.858468,0.124889 -0.858468,0.124889 l -6.290581,1.769072 c 0,0 -6.683905,1.965613 -9.92755,2.162198 -3.243644,0.196583 -6.389054,1.081177 -9.632699,0.393129 -3.243645,-0.688047 -4.226659,-2.65361 -4.226659,-2.65361 0,0 1.92e-4,5.307958 8.355036,8.551603 8.354843,3.243648 12.876319,3.439913 14.940463,2.948454 2.064135,-0.491462 7.863625,-3.2433 7.863625,-3.2433 0,0 1.618139,-0.768085 2.555334,-2.063919 l 1.277658,1.867355 1.867893,2.751892 2.850173,2.948996 1.769616,0.491409 1.867354,-0.294846 c 0,0 1.400508,-0.466997 1.474229,-1.52364 0.07367,-1.056642 0.07386,-1.03223 0.07386,-1.03223 0,0 -0.147259,0.95863 -0.417561,1.204359 -0.270301,0.245732 -0.07386,0.589731 -1.425356,0.196563 -1.351525,-0.393168 -1.720323,-0.786625 -1.892338,-1.106076 -0.172007,-0.31945 -0.171586,-1.646357 -0.171586,-1.646357 0,0 -0.196992,-2.383232 -1.278207,-4.594808 -1.081215,-2.211576 -2.50604,-4.128488 -3.832983,-5.652019 l -1.671331,-0.09828 -0.294847,0.687973 -0.02608,0.121085 c -0.172739,-0.499713 -0.414669,-0.995646 -0.760192,-1.39875 -0.663471,-0.774052 -1.544765,-0.92626 -2.188797,-0.911142 z"
       id="path1459"
       inkscape:connector-curvature="0" />
    <path
       style="fill:#000000;fill-opacity:1;stroke:#000000;stroke-width:0.27801257px;stroke-linecap:butt;stroke-linejoin:miter;stroke-opacity:1"
       d="m 15.635272,55.468995 7.836848,-18.103141 0.982921,-3.735108 6.487291,5.307786 c 0,0 -0.786337,3.931689 -0.196583,7.666797 0.589754,3.735107 4.521444,12.974583 4.521444,12.974583 0,0 1.965846,6.094122 8.453136,10.418983 6.487292,4.324861 13.957504,12.384826 13.957504,12.384826 l 6.683878,5.307785 6.683878,2.555598 c 0,0 1.57267,-4.128276 0.19658,-6.094122 C 69.866079,82.187139 68.2934,81.400799 68.2934,81.400799 l 3.145359,-0.196585 10.222397,-0.786337 0.349615,0.975791 c 0,0 -0.695028,-0.208509 -1.042547,2.085095 -0.347509,2.293603 0.486523,4.795716 0.486523,4.795716 0,0 1.320563,1.32056 1.876587,0.834039 0.556025,-0.486523 0.208506,-3.614165 0.208506,-3.614165 0,0 -0.556024,-2.154597 0.556033,-3.614163 1.112049,-1.459565 1.737575,-2.919132 1.737575,-2.919132 0,0 0.556024,-1.11205 0.139004,-1.668075 -0.417021,-0.556025 2.015591,1.946087 2.015591,1.946087 l -1.320554,1.042548 2.085094,2.154597 1.946089,3.127642 -0.891544,1.709905 -1.326943,0.872345 c 0,0 0.491456,-1.081216 0.282584,-1.634107 -0.208872,-0.552896 -0.663471,-1.081217 -0.884625,-1.154937 -0.221163,-0.07372 -0.368596,0.02457 -0.368596,0.02457 0,0 -0.221164,0.09829 -0.282593,0.430029 -0.06141,0.331736 0.08603,1.35152 0.08603,1.35152 l 0.221163,1.105786 0.688045,2.322155 1.154935,1.744688 0.557031,1.950694 1.94609,4.23969 0.521273,1.2858 0.695028,1.251065 0.521274,3.02339 -0.312759,0.59078 -3.683673,3.05813 -1.320554,1.70283 -2.154596,2.53686 -0.312767,0.31277 2.085093,2.74537 c 0,0 1.18155,0.17377 1.668073,0.0695 0.486522,-0.10426 0.625535,-0.0695 0.625535,-0.0695 l -2.814881,2.39786 -3.892179,2.46737 -4.378693,-0.55603 1.320554,2.11985 -2.119844,0.62552 -2.780121,0.38227 c 0,0 -0.79929,0.38227 -2.085094,-0.0695 -1.285812,-0.45178 -2.78013,-1.35532 -2.78013,-1.35532 l -1.077298,-0.2085 -2.467363,-0.13901 -1.615942,0.0869 c 0,0 -1.546449,0.31276 -1.615951,0.33014 -0.06947,0.0174 -0.173755,0 -0.364889,0.10425 -0.191135,0.10425 -0.312768,0.50389 -0.312768,0.50389 l 0.469142,0.79929 1.772335,1.35532 2.119845,0.83403 1.19893,0.27801 0.503893,0.0695 -0.590775,0.79928 -0.849838,0.68323 -1.11807,0.54061 -1.068933,0.0245 -0.442308,-0.0491 -2.49417,-0.76176 -2.039561,-0.79862 -3.142375,-1.15057 1.59858,3.33614 v 0.10426 l -0.4344,-0.19113 -2.206727,-1.5812 -3.370899,-2.88438 -2.206725,-1.45957 -2.757437,-1.39534 -1.154937,-0.44232 -1.597248,-0.49145 -1.277799,-0.19659 2.752182,5.33235 -1.032068,-0.44231 -1.35152,-0.71262 -1.916699,-1.30237 -4.275713,-4.10371 -1.990421,-2.30986 -4.054557,-3.88255 -1.204078,-1.0075 -1.720117,-1.49895 -5.234064,-5.60266 -0.221157,-0.22116 -1.032069,3.21907 -0.147438,0.66348 c 0,0 0.344021,1.89212 0.196582,2.43273 -0.147437,0.5406 -0.245729,0.66347 -0.245729,0.66347 0,0 -0.09829,0.22117 -0.31945,0.14744 -0.221157,-0.0737 -1.277799,-0.66347 -1.67097,-1.08122 -0.393169,-0.41773 -1.965844,-2.97333 -1.965844,-2.97333 l -2.236176,-3.88256 -2.187006,-5.012905 -0.835483,-2.38359 -1.425197,-5.382744 -1.598571,-4.865219 -0.417019,-0.834039 c 0,0 -0.6255289,-1.216305 -1.1989296,-2.015591 C 8.2331877,81.289386 7.9204228,81.046125 7.7292898,80.264215 7.538156,79.482304 7.5034041,79.100037 7.6597879,78.196496 7.8161699,77.292955 8.1289349,76.6153 8.1289349,76.6153 c 0,0 3.3023801,-11.088732 5.4156621,-16.052494 2.113286,-4.963759 2.090677,-5.093838 2.090677,-5.093838 z"
       id="path1475"
       inkscape:connector-curvature="0" />
  </g>
  <g
     inkscape:groupmode="layer"
     id="layer3"
     inkscape:label="nose"
     style="display:inline">
    <path
       style="fill:none;stroke:#000000;stroke-width:0.27801257px;stroke-linecap:butt;stroke-linejoin:miter;stroke-opacity:1"
       d="m 83.430416,63.069286 c 0,0 -1.130362,0.0983 -1.277804,0.491463 -0.147433,0.393168 0.196589,-0.491463 0.196589,-0.491463 0,0 1.277796,-0.688045 2.457305,-0.88463 1.17951,-0.196586 2.432731,-0.712619 2.432731,-0.712619 l 0.884634,-0.516035 1.302369,-0.712619 0.688054,-0.688045 0.491456,-0.466889 c 0,0 0.417743,-0.614327 0.516038,-0.860057 0.09829,-0.245732 0.07368,-0.933777 0.07368,-0.933777 l -0.196589,-0.860057 -0.58975,-1.695543 -0.712619,-1.400664 c 0,0 -0.909208,-1.228654 -1.400664,-3.44023 -0.491464,-2.211576 -0.835487,-3.243645 -0.835487,-3.243645"
       id="path1482"
       inkscape:connector-curvature="0" />
    <path
       style="fill:#4d4d4d;fill-opacity:1;stroke:#000000;stroke-width:0.27801257px;stroke-linecap:butt;stroke-linejoin:miter;stroke-opacity:1"
       d="m 72.716554,61.594902 c 0,0 -4.668882,-4.619738 -4.128279,-5.651806 0.540612,-1.032069 3.980846,-2.948768 3.980846,-2.948768 0,0 1.916693,-0.884631 3.243644,-0.78634 1.326943,0.0983 3.735109,0.54061 4.767177,1.376094 1.032067,0.835486 1.425237,1.228654 1.425237,1.228654 0,0 -2.555599,-2.014994 -4.472301,-1.228654 -1.916702,0.786338 -3.735109,0.540606 -4.767177,1.965845 -1.032067,1.425237 -0.688045,3.391084 -0.688045,3.391084 0,0 0.147443,1.916699 0.638898,2.653891 z"
       id="path1484"
       inkscape:connector-curvature="0" />
    <path
       style="fill:url(#linearGradient1513);fill-opacity:1;stroke:#000000;stroke-width:0.27801257px;stroke-linecap:butt;stroke-linejoin:miter;stroke-opacity:1"
       d="m 79.44958,57.368335 c -0.39317,-0.09829 -3.784257,0.147439 -4.177427,1.474385 -0.393169,1.326945 0.98293,1.867551 0.98293,1.867551 0,0 1.081205,0.540607 1.867545,0.589754 0.78634,0.04915 2.555599,-0.04915 2.555599,-0.04915 l 0.58976,1.42524 c 0,0 1.425237,-0.540609 2.113282,-1.376093 0.688045,-0.835483 0.58975,-1.523531 0.58975,-1.523531 0,0 -0.09829,-0.835483 -1.130362,-1.326945 -1.032068,-0.491457 -3.391077,-1.081211 -3.391077,-1.081211 z"
       id="path1486"
       inkscape:connector-curvature="0" />
    <path
       style="fill:none;stroke:#000000;stroke-width:0.27801257px;stroke-linecap:butt;stroke-linejoin:miter;stroke-opacity:1"
       d="m 58.267592,67.246708 c 0,0 0.98292,0.393169 3.440225,-1.965845 2.457314,-2.359015 4.914618,-5.897537 4.914618,-5.897537 l 1.474385,-2.5556 0.39317,-0.589754"
       id="path1488"
       inkscape:connector-curvature="0" />
    <path
       style="fill:#4d4d4d;stroke:#000000;stroke-width:0.27801257px;stroke-linecap:butt;stroke-linejoin:miter;stroke-opacity:1"
       d="m 73.183875,76.736958 c 0,0 4.031183,-1.251057 6.533297,-1.112051 2.502114,0.139007 2.502114,-0.278012 3.614162,0.695032 1.112049,0.973044 1.720909,1.296606 1.720909,1.296606 l -2.850484,-2.948768 c 0,0 -1.621817,-0.393168 -3.341939,-0.196583 -1.720112,0.196583 -3.636814,0.982922 -3.636814,0.982922 z"
       id="path1490"
       inkscape:connector-curvature="0" />
  </g>
  <g
     inkscape:groupmode="layer"
     id="layer5"
     inkscape:label="eyes"
     style="display:inline">
    <path
       style="fill:#00ffff;fill-opacity:0.70114938;stroke:none;stroke-width:0.27801257px;stroke-linecap:butt;stroke-linejoin:miter;stroke-opacity:1"
       d="m 60.430022,45.81899 c 0,0 -2.672455,-0.591886 -3.78789,-1.331492 -1.148191,-0.761312 -2.78013,-3.058138 -2.78013,-3.058138 l -4.587207,-5.143232 -2.688818,-3.127642 c 0,0 -2.098861,-2.068672 -2.28168,-3.429502 -0.126507,-0.941662 0.297702,-1.968054 0.896555,-2.705685 0.495718,-0.610596 2.039441,-1.186491 2.039441,-1.186491 0,0 3.98059,-0.60168 6.621709,-0.671183 2.641117,-0.0695 5.977272,0 11.051001,0 5.07373,0 8.826896,0.625528 10.772986,0.834037 1.946089,0.20851 5.07373,0.625529 5.07373,0.625529 l 6.25528,1.876585 5.421248,2.293604 4.170187,2.780125 2.849635,3.058139 1.181551,2.154597 0.0695,5.629755 -0.62553,3.405654 c 0,0 -0.373701,1.880563 -0.695026,2.780126 -0.310269,0.868602 -1.181559,2.502113 -1.181559,2.502113 l -2.085096,2.293603 -5.07373,-0.556025 -1.807077,-3.683666 -1.251061,-3.614164 -0.973045,-2.502113 c 0,0 -0.347509,-1.598572 -2.988636,-1.112051 -2.641118,0.486523 -6.533288,1.668076 -6.533288,1.668076 l -6.602799,0.625528 -5.14324,0.625529 z"
       id="path1498"
       inkscape:connector-curvature="0"
       sodipodi:nodetypes="cscccsscsssccccccccsccccccscccc" />
  </g>
  <g
     inkscape:groupmode="layer"
     id="layer6"
     inkscape:label="hair ear"
     style="display:inline">
    <path
       style="fill:#ffffff;fill-opacity:1;stroke:#000000;stroke-width:0.27801257px;stroke-linecap:butt;stroke-linejoin:miter;stroke-opacity:1"
       d="m 22.980658,31.370023 0.393168,-2.457306 c 0,0 0.09829,-4.619737 -3.341937,-6.48729 -3.440231,-1.867554 -6.585584,-1.277801 -6.585584,-1.277801 0,0 -6.2907087,4.521446 -7.5685066,13.269459 -1.2777988,8.748013 1.7692606,13.072874 1.7692606,13.072874 0,0 1.5726785,2.162432 3.243645,3.243645 1.67097,1.081216 3.833399,1.867556 4.423152,2.359015 0.589757,0.491463 2.359018,-2.064138 2.359018,-2.064138 0,0 0.589754,-0.393168 0.393168,-1.965843 -0.196585,-1.572679 -0.09829,-3.538525 -0.09829,-3.538525 l 1.37609,0.491462 c 0,0 0.491463,0.589754 0.78634,-1.474383 0.294876,-2.064139 0.196584,-4.22657 0.196584,-4.22657 0,0 -0.589753,-0.589754 0,-1.670967 0.589755,-1.081217 1.081217,-1.474387 2.064139,-2.162432 0.982922,-0.688045 2.162429,-0.786339 0.982922,-0.688045 -1.179507,0.09829 -0.786336,0.884631 -1.179507,0.09829 -0.393169,-0.786339 -0.393169,-1.965846 -0.09829,-2.653891 0.294877,-0.688045 0.884631,-1.867555 0.884631,-1.867555 z"
       id="path1503"
       inkscape:connector-curvature="0" />
    <path
       style="fill:none;stroke:#000000;stroke-width:0.27801257px;stroke-linecap:butt;stroke-linejoin:miter;stroke-opacity:1"
       d="m 23.47212,35.498301 -2.359018,1.179508 -0.982921,1.474383 -0.78634,1.277799 c 0,0 -0.589754,-2.359014 -0.196582,-3.636813 0.393168,-1.277802 0.982922,-3.047062 1.081213,-4.521446 0.09829,-1.474385 0.786339,-2.16243 -0.589754,-4.324861 -1.37609,-2.16243 -2.457306,-2.653891 -2.457306,-2.653891 l -2.457309,-0.884631 c 0,0 -1.179507,-0.09829 -2.162429,1.965846 -0.982922,2.064138 -3.5385223,6.290708 -3.5385223,6.290708 0,0 -0.6880477,0.786336 -0.3931708,3.243645 0.2948769,2.457306 0.4914628,5.504368 0.7863388,6.388998"
       id="path1501"
       inkscape:connector-curvature="0" />
    <path
       style="fill:#000000;fill-opacity:1;stroke:#000000;stroke-width:0.27801257px;stroke-linecap:butt;stroke-linejoin:miter;stroke-opacity:1"
       d="m 47.537217,18.076304 c 0,0 -5.560253,-1.668075 -8.479384,2.988636 -2.919132,4.65671 -3.266648,6.672301 -5.351742,11.329011 -2.085094,4.656711 -2.571617,5.490749 -2.571617,5.490749 0,0 -0.139006,-2.154597 -2.919131,-2.919132 -2.780126,-0.764534 -2.780126,-0.486522 -3.405654,-1.946089 -0.625528,-1.459565 -1.112051,-3.544659 -1.112051,-3.544659 0,0 -0.139006,-1.946089 -0.417018,-2.710623 -0.278013,-0.764535 -1.181554,-2.780126 -1.181554,-2.780126 0,0 -2.919133,-2.363106 -4.656711,-2.641119 -1.737579,-0.278012 -4.239692,-0.278012 -4.239692,-0.208509 0,0.0695 -0.41702,-0.139007 -0.41702,-0.139007 l 0.41702,-1.181553 c 0,0 3.753169,0.347516 4.100685,0.208509 0.347516,-0.139006 8.134615,-2.314997 13.245816,-4.28084 5.1112,-1.965846 6.683875,-2.359018 6.683875,-2.359018 0,0 1.965847,-1.179507 5.897536,1.572679 3.931693,2.752182 4.406642,3.121091 4.406642,3.121091 z"
       id="path1505"
       inkscape:connector-curvature="0" />
    <path
       style="fill:#ffffff;fill-opacity:1;stroke:#000000;stroke-width:0.37507889;stroke-linecap:square;stroke-linejoin:miter;stroke-miterlimit:4;stroke-dasharray:none;stroke-dashoffset:0;stroke-opacity:0.99462364"
       d="M 67.401819,88.525436 C 63.818262,87.080129 60.718362,84.706811 54.055936,78.307659 51.453465,75.808029 47.376492,72.307263 44.995993,70.528174 38.119118,65.388687 36.516606,62.943138 32.413725,51.326727 c -1.21623,-3.443483 -1.328434,-4.119378 -1.369482,-8.249575 -0.03979,-4.003934 0.04734,-4.664056 0.792063,-6.001263 0.460227,-0.826362 1.949396,-4.103059 3.309261,-7.281553 2.607258,-6.094076 4.568896,-9.413563 6.322234,-10.69849 0.820732,-0.601467 1.622371,-0.776061 3.563252,-0.776061 2.422229,0 2.639451,0.08146 6.630143,2.486502 2.269228,1.367578 4.801013,2.836991 5.626185,3.265364 l 1.500313,0.77886 -1.929424,0.01657 c -3.539404,0.03041 -9.611054,0.79948 -10.681378,1.352964 -1.238662,0.640539 -1.829734,1.602223 -1.829734,2.97702 0,1.451406 0.437,2.092835 4.826994,7.085045 2.196944,2.498321 4.633276,5.32845 5.414074,6.289178 1.739729,2.140636 2.960204,2.742319 7.450361,3.672966 3.313256,0.686719 3.791486,0.695844 8.939175,0.170555 2.991254,-0.305235 7.297186,-0.998996 9.568747,-1.541685 5.484581,-1.310307 6.354508,-1.065505 6.738462,1.896218 0.248903,1.919946 1.163346,4.742906 2.323362,7.172346 0.686736,1.438235 1.248608,2.961943 1.248608,3.386024 0,1.745271 -2.137435,3.370716 -5.956808,4.52994 -0.952772,0.289174 -1.778393,0.527601 -1.834725,0.529836 -0.05638,0.0022 0.167668,-0.408148 0.497779,-0.911954 1.516348,-2.314237 -0.61501,-4.141617 -4.834875,-4.145309 -2.206598,-0.0019 -2.659349,0.115234 -3.247177,0.840316 -1.409706,1.738846 0.432936,3.470848 3.692569,3.470848 1.154177,0 1.510701,0.16094 1.66519,0.751706 0.131801,0.504012 0.394799,0.675638 0.798156,0.520857 0.453556,-0.174044 0.540428,-0.07148 0.353055,0.416813 -0.208103,0.542294 -0.102001,0.601886 0.652132,0.366287 0.495363,-0.154755 0.996923,-0.430497 1.114574,-0.612753 0.239944,-0.371704 2.656832,-1.135207 2.881702,-0.910344 0.07953,0.07956 -0.06105,1.190071 -0.312392,2.467798 l -0.457052,2.323141 -0.908952,-1.161435 c -0.652461,-0.833688 -1.223248,-1.161434 -2.022703,-1.161434 -0.612558,0 -1.476069,-0.337571 -1.918935,-0.750158 -1.127086,-1.050046 -2.176414,-0.955405 -8.16153,0.736084 -5.057915,1.429444 -10.576369,2.639624 -12.036778,2.639624 -0.505824,0 -0.04036,-0.66713 1.692107,-2.425411 1.314422,-1.333977 3.176568,-3.608793 4.138099,-5.055151 l 1.748246,-2.629731 1.865861,2.242054 c 1.02622,1.233133 2.009057,2.242058 2.184075,2.242058 0.175018,0 0.230553,-1.092082 0.123408,-2.426845 -0.25963,-3.23444 0.243358,-3.982507 3.237467,-4.814941 2.7892,-0.775469 3.314116,-0.783312 4.681942,-0.06994 1.695273,0.884147 2.033786,0.636154 0.739553,-0.541801 -1.634621,-1.487771 -4.837309,-2.198493 -7.136217,-1.583627 -2.702346,0.722766 -5.098285,2.526228 -6.499653,4.89239 -2.60709,4.401993 -7.479004,9.795871 -8.847928,9.795871 -0.287132,0 -0.522051,0.168784 -0.522051,0.375077 0,0.580646 -5.829233,0.457028 -7.293213,-0.154664 -0.69732,-0.291357 -1.634283,-0.896171 -2.082142,-1.344029 -1.06597,-1.065972 -1.347366,-0.71445 -0.822475,1.027426 1.208959,4.012003 5.990912,7.047358 14.698778,9.33008 4.021463,1.05421 8.936402,1.158879 12.94022,0.275577 1.237763,-0.273067 3.232249,-0.498982 4.432205,-0.502029 1.793394,-0.0046 2.416275,0.173357 3.499467,0.999544 1.088363,0.830134 1.376795,0.911745 1.657081,0.468849 0.259712,-0.410397 0.3407,-0.333323 0.345093,0.328441 0.0027,0.475568 -0.583993,1.975977 -1.304785,3.334236 -1.241799,2.340018 -1.297994,2.604549 -1.071385,5.042817 0.200571,2.158 0.147094,2.573251 -0.331392,2.573251 -0.894565,0 -1.343435,-0.798919 -1.619933,-2.883221 -0.189871,-1.431326 -0.09962,-2.239423 0.350969,-3.142652 0.659481,-1.321963 0.764979,-2.085144 0.325252,-2.352854 -0.154719,-0.09419 -3.150667,0.05682 -6.657657,0.335573 -3.506981,0.278755 -6.689965,0.514646 -7.073287,0.524201 -0.511343,0.01276 -0.186678,0.476157 1.219001,1.739989 1.786485,1.606201 1.915613,1.840665 1.910845,3.469479 -0.0055,1.901401 -0.319147,3.443909 -0.695019,3.418938 -0.130657,-0.0087 -1.593556,-0.562675 -3.250884,-1.231094 z"
       id="path1776"
       inkscape:connector-curvature="0" />
    <path
       style="fill:#f5f5f5;fill-opacity:1;stroke:#000000;stroke-width:0.37507889;stroke-linecap:square;stroke-linejoin:miter;stroke-miterlimit:4;stroke-dasharray:none;stroke-dashoffset:0;stroke-opacity:0.99462364"
       d="m 94.044519,31.748993 c -2.174812,-1.668084 -12.167096,-5.337136 -14.669054,-5.38631 -0.859585,-0.0169 12.819054,-4.818277 13.808719,-4.847043 0.145374,-0.0042 0.344453,0.540871 0.4424,1.211322 0.09795,0.670453 0.453967,3.050777 0.791162,5.289609 0.337195,2.238833 0.559814,4.12387 0.494714,4.188971 -0.06507,0.0651 -0.455679,-0.140346 -0.867941,-0.456549 z"
       id="path1786"
       inkscape:connector-curvature="0" />
  </g>
  <g
     inkscape:groupmode="layer"
     id="layer7"
     inkscape:label="hat"
     style="display:inline">
    <path
       style="fill:#0b1728;fill-opacity:1;stroke:#000000;stroke-width:0.27801257px;stroke-linecap:butt;stroke-linejoin:miter;stroke-opacity:1"
       d="m 13.053136,19.869828 4.226567,0.294877 4.619739,-1.376094 7.617653,-2.65389 5.307783,-2.064139 c 0,0 2.260723,-0.933777 3.587668,-0.88463 1.326946,0.04915 2.457309,0.04915 3.538522,0.786336 1.081216,0.737195 3.931692,2.899624 4.963762,3.538525 1.032069,0.638898 7.568506,4.767176 8.944596,5.406074 1.376099,0.6389 10.369839,6.683875 21.083701,3.44023 10.713854,-3.243645 17.201142,-5.995828 23.983313,-6.978752 6.78217,-0.982922 13.85922,-1.179507 15.92335,0.688048 2.06415,1.867552 4.52145,3.93169 4.02999,9.829225 -0.49146,5.89754 -0.88463,8.846308 -2.35901,10.320692 -1.47439,1.474384 -4.22658,2.948768 -6.09412,3.243645 -1.86756,0.294877 -8.94461,-0.491459 -8.94461,-0.491459 l -2.5556,-0.884634 -0.0108,1.187311 2.25886,0.799287 2.84963,1.11205 3.57941,0.382267 c 0,0 3.78792,0.03475 4.17019,-0.139006 0.38226,-0.173758 5.00422,-2.467362 6.25528,-4.20494 1.25106,-1.737578 2.05035,-5.5255 2.05035,-5.5255 0,0 0.55602,-2.502113 0.27801,-5.629755 -0.27801,-3.127641 -0.45177,-6.116276 -0.90354,-7.124071 -0.45177,-1.007796 -1.73757,-2.919133 -2.60637,-3.544661 -0.86879,-0.625529 -2.50211,-1.702827 -4.93472,-2.536865 -2.43261,-0.834037 -7.95811,-2.919132 -7.95811,-2.919132 L 97.961769,11.438754 94.104338,10.222449 92.888037,9.1451501 88.578837,0.70051837 88.370331,0.42250617 80.724986,0.38775527 63.522956,0.35300427 56.98966,0.24874967 44.861363,0.28350057 19.040945,0.17924587 18.519671,0.14449497 c 0,0 -4.100685,7.26307813 -4.691462,8.72264513 -0.590777,1.4595649 -0.868789,2.6063669 -1.042548,3.5794109 -0.173757,0.973044 -0.208509,2.224101 -0.208509,2.224101 l 0.382268,2.397859 z"
       id="path1517"
       inkscape:connector-curvature="0" />
    <path
       style="fill:#e6e6e6;fill-opacity:1;stroke:#000000;stroke-width:0.27801257px;stroke-linecap:butt;stroke-linejoin:miter;stroke-opacity:1"
       d="m 93.751108,21.147626 0.491456,2.899624 0.196589,3.194498 0.688045,3.44023 0.294875,1.867555 1.720116,1.425237 c 0,0 3.194501,3.243645 3.440231,4.423152 0.24573,1.179508 0.24573,3.292792 0.24573,3.292792 l 0.0983,0.294877 2.65389,1.032069 5.70096,0.442315 c 0,0 3.88255,0 4.96376,-0.491462 1.08122,-0.49146 3.09621,-1.670967 3.68597,-2.162429 0.58975,-0.491462 1.32694,-1.081216 1.96584,-2.997915 0.63889,-1.9167 0.93378,-6.733023 0.98292,-7.666797 0.0491,-0.933778 0.0983,-3.685961 -0.24573,-4.865471 -0.34402,-1.179507 -2.80133,-5.012905 -4.61974,-5.750098 -1.8184,-0.737192 -4.4723,-0.88463 -4.4723,-0.88463 0,0 -4.81632,0.04915 -5.94668,0.196585 -1.13037,0.147439 -5.01291,0.589754 -5.01291,0.589754 l -5.307794,1.130361 -1.032067,0.294876 z"
       id="path1519"
       inkscape:connector-curvature="0" />
    <path
       style="fill:#ff0000;fill-opacity:0.5;stroke:#000000;stroke-width:0.27801257px;stroke-linecap:butt;stroke-linejoin:miter;stroke-opacity:1"
       d="m 78.987393,0.52676087 c 0,0 3.683664,4.10068523 6.915557,5.94251923 3.231893,1.841833 4.274449,2.2241 4.934726,2.154597 0.660277,-0.0695 0.938294,-0.104255 1.077298,-0.451771 0.139003,-0.347516 0.173754,-0.590777 0.173754,-0.590777 l -3.614162,-7.01981733 -0.104253,-0.1042546 -9.38292,-0.1390056 z"
       id="path1521"
       inkscape:connector-curvature="0" />
  </g>
  <path
     style="fill:none;stroke:none;stroke-width:0.27801257px;stroke-linecap:butt;stroke-linejoin:miter;stroke-opacity:1"
     d="m 75.199467,39.344269 -4.726212,6.811304 7.01982,-0.556024 0.834032,-3.12764 z"
     id="path1641"
     inkscape:connector-curvature="0" />
  <path
     style="fill:none;stroke:none;stroke-width:0.27801257px;stroke-linecap:butt;stroke-linejoin:miter;stroke-opacity:1"
     d="m 78.327107,42.471909 v 0 l 9.174414,-4.239689 2.849633,-3.961681 -1.112049,-4.72622 -9.869452,9.174414 z"
     id="path1645"
     inkscape:connector-curvature="0" />
  <path
     style="fill:none;stroke:none;stroke-width:0.27801257px;stroke-linecap:butt;stroke-linejoin:miter;stroke-opacity:1"
     d="m 75.199467,39.344269 -6.463795,-5.49075 3.475158,-6.463795 z"
     id="path1647"
     inkscape:connector-curvature="0" />
  <path
     style="fill:none;stroke:none;stroke-width:0.27801257px;stroke-linecap:butt;stroke-linejoin:miter;stroke-opacity:1"
     d="m 47.240293,25.836804 9.193324,6.209629 4.517705,-6.672301 c 0,0 -13.711029,0.462672 -13.711029,0.462672 z"
     id="path1649"
     inkscape:connector-curvature="0" />
  <path
     style="fill:none;stroke:none;stroke-width:0.27801257px;stroke-linecap:butt;stroke-linejoin:miter;stroke-opacity:1"
     d="M 63.105918,34.757061 58.10169,45.113026 51.568399,33.784017 56.433617,32.046433 Z"
     id="path1651"
     inkscape:connector-curvature="0" />
  <path
     style="fill:none;stroke:none;stroke-width:0.27801257px;stroke-linecap:butt;stroke-linejoin:miter;stroke-opacity:1"
     d="m 60.951322,25.374132 -0.139003,4.031183 -4.378702,2.641118 z"
     id="path1653"
     inkscape:connector-curvature="0" />
  <path
     style="fill:none;stroke:none;stroke-width:0.27801257px;stroke-linecap:butt;stroke-linejoin:miter;stroke-opacity:1"
     d="m 60.812319,29.405315 7.923353,4.448204 -5.629754,0.903542 z"
     id="path1655"
     inkscape:connector-curvature="0" />
  <path
     style="fill:none;stroke:none;stroke-width:0.27801257px;stroke-linecap:butt;stroke-linejoin:miter;stroke-opacity:1"
     d="m 68.735672,33.853519 1.737583,12.302054"
     id="path1657"
     inkscape:connector-curvature="0" />
  <path
     style="fill:none;stroke:none;stroke-width:0.27801257px;stroke-linecap:butt;stroke-linejoin:miter;stroke-opacity:1"
     d="m 63.105918,34.757061 7.367337,11.398512"
     id="path1659"
     inkscape:connector-curvature="0" />
  <path
     style="fill:none;stroke:none;stroke-width:0.27801257px;stroke-linecap:butt;stroke-linejoin:miter;stroke-opacity:1"
     d="m 58.10169,45.113026 12.371565,1.042547"
     id="path1661"
     inkscape:connector-curvature="0" />
  <path
     style="fill:none;stroke:none;stroke-width:0.27801257px;stroke-linecap:butt;stroke-linejoin:miter;stroke-opacity:1"
     d="m 51.568399,33.784017 -6.741805,-2.919135 2.413699,-5.028078 z"
     id="path1663"
     inkscape:connector-curvature="0" />
  <path
     style="fill:none;stroke:none;stroke-width:0.27801257px;stroke-linecap:butt;stroke-linejoin:miter;stroke-opacity:1"
     d="m 88.891586,40.734325 -1.112048,1.737584 3.822668,-0.06947 z"
     id="path1665"
     inkscape:connector-curvature="0" />
  <path
     style="fill:none;stroke:none;stroke-width:0.27801257px;stroke-linecap:butt;stroke-linejoin:miter;stroke-opacity:1"
     d="m 94.799357,44.209484 4.656712,-7.575844 0.486522,10.425476 z"
     id="path1667"
     inkscape:connector-curvature="0" />
  <path
     style="fill:none;stroke:none;stroke-width:0.27801257px;stroke-linecap:butt;stroke-linejoin:miter;stroke-opacity:1"
     d="m 94.799357,44.209484 -3.197151,-1.807077 0.139013,6.741802 z"
     id="path1669"
     inkscape:connector-curvature="0" />
  <path
     style="fill:none;stroke:none;stroke-width:0.27801257px;stroke-linecap:butt;stroke-linejoin:miter;stroke-opacity:1"
     d="m 91.741219,49.144209 8.201372,-2.085093"
     id="path1671"
     inkscape:connector-curvature="0" />
  <path
     style="fill:none;stroke:none;stroke-width:0.27801257px;stroke-linecap:butt;stroke-linejoin:miter;stroke-opacity:1"
     d="m 91.741219,49.144209 8.201372,-2.085093 -3.82268,8.340374 z"
     id="path1675"
     inkscape:connector-curvature="0" />
  <path
     style="fill:none;stroke:none;stroke-width:0.27801257px;stroke-linecap:butt;stroke-linejoin:miter;stroke-opacity:1"
     d="m 89.239105,51.159801 1.807077,3.683664 0.695037,-5.699256 z"
     id="path1677"
     inkscape:connector-curvature="0" />
  <path
     style="fill:none;stroke:none;stroke-width:0.27801257px;stroke-linecap:butt;stroke-linejoin:miter;stroke-opacity:1"
     d="m 87.779538,42.471909 -3.405657,0.347518 5.977273,-8.548888 7.853853,4.795713 -3.40565,5.143232 -5.907771,-3.475159 z"
     id="path1679"
     inkscape:connector-curvature="0" />
  <path
     style="fill:none;stroke:none;stroke-width:0.27801257px;stroke-linecap:butt;stroke-linejoin:miter;stroke-opacity:1"
     d="m 77.979597,39.135754 1.390056,-0.417021 0.417021,-8.270871 -2.224097,-3.961681 -4.65671,2.849632 0.76453,2.919135 h 2.988637 z"
     id="path1681"
     inkscape:connector-curvature="0" />
  <path
     style="fill:none;stroke:none;stroke-width:0.27801257px;stroke-linecap:butt;stroke-linejoin:miter;stroke-opacity:1"
     d="m 91.602206,42.402407 1.460858,0.271226 0.884625,-1.670965 2.014987,0.933772 -1.163319,2.273044 z"
     id="path1683"
     inkscape:connector-curvature="0" />
  <path
     style="fill:none;stroke:none;stroke-width:0.27801257px;stroke-linecap:butt;stroke-linejoin:miter;stroke-opacity:1"
     d="m 94.095131,31.910632 -1.818407,3.440225"
     id="path1687"
     inkscape:connector-curvature="0" />
  <path
     style="fill:none;stroke:#000000;stroke-width:0.27801257px;stroke-linecap:butt;stroke-linejoin:miter;stroke-opacity:1"
     d="m 87.239237,61.472037 c 0,0 -1.197283,6.160005 -1.197283,6.160005"
     id="path1689"
     inkscape:connector-curvature="0" />
  <path
     style="fill:#80e5ff;fill-opacity:0.70114938;stroke:none;stroke-width:0.13261041;stroke-linecap:square;stroke-linejoin:miter;stroke-miterlimit:4;stroke-dasharray:none;stroke-dashoffset:0;stroke-opacity:1"
     d="m 54.991412,39.311705 c -1.692357,-2.933723 -3.033056,-5.375643 -2.979336,-5.426483 0.05372,-0.05089 1.07113,-0.436039 2.260907,-0.855997 l 2.163233,-0.763551 3.074878,1.237571 c 1.691182,0.680659 3.122405,1.27829 3.180503,1.328078 0.08164,0.06992 -3.42818,7.556614 -4.42946,9.448422 -0.192947,0.36456 -0.205888,0.344901 -3.270725,-4.96804 z"
     id="path1710"
     inkscape:connector-curvature="0" />
  <path
     style="fill:#00ccff;fill-opacity:0.70114938;stroke:none;stroke-width:0.13261041;stroke-linecap:square;stroke-linejoin:miter;stroke-miterlimit:4;stroke-dasharray:none;stroke-dashoffset:0;stroke-opacity:1"
     d="m 91.89687,46.871029 c -0.04915,-0.824212 -0.0701,-2.076509 -0.04668,-2.782876 l 0.04265,-1.284312 1.193494,0.669494 c 0.656424,0.368211 1.240307,0.71249 1.297509,0.765051 0.0572,0.05253 -0.458865,1.003586 -1.146837,2.113392 l -1.25086,2.017816 z"
     id="path1712"
     inkscape:connector-curvature="0" />
  <path
     style="fill:#00ccff;fill-opacity:0.70114938;stroke:none;stroke-width:0.13261041;stroke-linecap:square;stroke-linejoin:miter;stroke-miterlimit:4;stroke-dasharray:none;stroke-dashoffset:0;stroke-opacity:1"
     d="m 64.74344,31.401193 -3.677404,-2.074587 -8.33e-4,-1.525024 c -2.74e-4,-0.838763 0.03441,-1.65601 0.07734,-1.81611 l 0.07807,-0.291095 0.650722,0.256491 c 0.988146,0.3895 3.473008,1.02221 4.958092,1.262474 0.729358,0.118 2.173293,0.224037 3.208747,0.235633 l 1.882637,0.02114 -0.735298,1.392408 c -1.784269,3.378804 -2.500823,4.640418 -2.628186,4.62734 -0.07514,-0.0073 -1.791408,-0.947593 -3.813973,-2.088617 z"
     id="path1718"
     inkscape:connector-curvature="0" />
  <path
     style="fill:#aaeeff;fill-opacity:0.70114938;stroke:none;stroke-width:0.13261041;stroke-linecap:square;stroke-linejoin:miter;stroke-miterlimit:4;stroke-dasharray:none;stroke-dashoffset:0;stroke-opacity:1"
     d="m 44.627103,30.146791 c -0.414375,-1.085947 0.245074,-2.76989 1.35294,-3.454832 0.346557,-0.214262 0.659518,-0.360149 0.695468,-0.324199 0.03595,0.03597 -0.378184,0.984934 -0.920297,2.108853 -0.944231,1.957585 -0.991651,2.027791 -1.128111,1.670178 z"
     id="path1720"
     inkscape:connector-curvature="0" />
  <path
     style="fill:#aaeeff;fill-opacity:0.70114938;stroke:none;stroke-width:0.47699431;stroke-linecap:square;stroke-linejoin:miter;stroke-miterlimit:4;stroke-dasharray:none;stroke-dashoffset:0;stroke-opacity:1"
     d=""
     id="path1722"
     inkscape:connector-curvature="0" />
  <path
     style="fill:#aaeeff;fill-opacity:0.70114938;stroke:none;stroke-width:0.13261041;stroke-linecap:square;stroke-linejoin:miter;stroke-miterlimit:4;stroke-dasharray:none;stroke-dashoffset:0;stroke-opacity:1"
     d="m 84.93083,42.461219 c 0,-0.169655 5.460886,-7.897333 5.548793,-7.852066 0.737568,0.379771 7.181807,4.387689 7.181807,4.466636 0,0.133695 -1.290858,2.249238 -1.522345,2.494929 -0.137613,0.146051 -0.301153,0.108948 -0.946485,-0.214775 -1.349649,-0.677035 -1.310688,-0.682096 -1.771081,0.22994 -0.570668,1.130481 -0.797835,1.11052 -3.147839,-0.276653 -0.744688,-0.439571 -1.412534,-0.763038 -1.484104,-0.718796 -0.07157,0.04421 -0.344151,0.432726 -0.60573,0.863328 -0.349011,0.574539 -0.571656,0.801615 -0.836576,0.853187 -0.692338,0.134785 -2.41644,0.244859 -2.41644,0.15427 z"
     id="path1724"
     inkscape:connector-curvature="0" />
  <path
     style="fill:#aaeeff;fill-opacity:0.70114938;stroke:none;stroke-width:0.13261041;stroke-linecap:square;stroke-linejoin:miter;stroke-miterlimit:4;stroke-dasharray:none;stroke-dashoffset:0;stroke-opacity:1"
     d="m 78.106602,38.653048 c -0.0561,-0.162433 -1.265009,-6.423306 -1.265009,-6.551308 0,-0.03112 -0.677776,-0.05665 -1.50617,-0.05665 h -1.506171 l -0.293639,-1.094027 c -0.1615,-0.601722 -0.304247,-1.19592 -0.317216,-1.320445 -0.01666,-0.159953 0.607021,-0.613317 2.12486,-1.544582 l 2.148454,-1.318165 1.048496,1.876102 1.048486,1.876103 -0.195683,3.97831 c -0.10763,2.188074 -0.233418,4.016778 -0.279518,4.063802 -0.04613,0.04704 -0.277815,0.126364 -0.514922,0.176317 -0.304896,0.06425 -0.448907,0.03926 -0.491968,-0.08548 z"
     id="path1726"
     inkscape:connector-curvature="0" />
  <path
     style="fill:#87cdde;fill-opacity:0.70114938;stroke:none;stroke-width:0.13261041;stroke-linecap:square;stroke-linejoin:miter;stroke-miterlimit:4;stroke-dasharray:none;stroke-dashoffset:0;stroke-opacity:1"
     d="m 58.911807,28.753431 1.685014,-2.496019 0.04018,1.136769 c 0.0669,1.891881 0.113551,1.811479 -1.681701,2.900811 -0.86514,0.524953 -1.607979,0.954466 -1.650757,0.954466 -0.04283,0 0.680467,-1.123214 1.607229,-2.496027 z"
     id="path1728"
     inkscape:connector-curvature="0" />
  <path
     style="fill:#87cdde;fill-opacity:0.70114938;stroke:none;stroke-width:0.13261041;stroke-linecap:square;stroke-linejoin:miter;stroke-miterlimit:4;stroke-dasharray:none;stroke-dashoffset:0;stroke-opacity:1"
     d="M 70.545686,45.147841 C 70.359237,44.10017 69.027435,34.510657 69.063394,34.474697 c 0.06288,-0.06297 5.775054,4.785133 5.782431,4.907709 0.0037,0.0605 -0.944847,1.48113 -2.107745,3.156945 -2.048686,2.952284 -2.116787,3.033309 -2.192394,2.60849 z"
     id="path1730"
     inkscape:connector-curvature="0" />
  <path
     style="fill:#87cdde;fill-opacity:0.70114938;stroke:none;stroke-width:0.13261041;stroke-linecap:square;stroke-linejoin:miter;stroke-miterlimit:4;stroke-dasharray:none;stroke-dashoffset:0;stroke-opacity:1"
     d="m 89.270653,50.650727 c -0.03331,-0.05857 -0.256372,-0.703201 -0.495611,-1.432559 -0.655216,-1.997552 -1.693726,-4.588744 -1.954656,-4.877076 -0.778505,-0.860234 -1.96163,-0.869835 -5.271124,-0.04283 -1.312839,0.328079 -2.682578,0.686873 -3.043852,0.797322 -0.361274,0.110449 -0.669539,0.188087 -0.685034,0.172529 -0.01547,-0.01556 0.130904,-0.61966 0.325334,-1.342447 l 0.353513,-1.314147 4.152313,-1.915512 c 2.283778,-1.05353 4.172593,-1.894362 4.197377,-1.868498 0.0248,0.02581 -0.603011,0.969494 -1.395099,2.096973 -0.792087,1.12748 -1.422427,2.067695 -1.400745,2.089368 0.02169,0.02169 0.89083,-0.05043 1.931464,-0.160265 1.040625,-0.109817 2.69129,-0.199673 3.668133,-0.199673 h 1.776069 v 1.57051 c 0,0.863776 0.03862,2.288034 0.08576,3.165008 l 0.08576,1.594499 -1.027875,0.84646 c -1.117751,0.920466 -1.211131,0.979314 -1.301683,0.820304 z"
     id="path1732"
     inkscape:connector-curvature="0" />
  <path
     style="fill:#87cdde;fill-opacity:0.70114938;stroke:none;stroke-width:0.13261041;stroke-linecap:square;stroke-linejoin:miter;stroke-miterlimit:4;stroke-dasharray:none;stroke-dashoffset:0;stroke-opacity:1"
     d="m 97.528824,45.489265 c -1.203446,-0.677786 -2.24775,-1.255061 -2.320693,-1.282838 -0.07294,-0.02773 0.613327,-1.173094 1.525024,-2.545166 0.9117,-1.372072 1.663902,-2.59467 1.671563,-2.716889 0.01858,-0.296449 0.726612,-1.495242 0.825008,-1.396847 0.05629,0.05629 0.543778,9.08669 0.494622,9.162553 -0.0037,0.0064 -0.992091,-0.543037 -2.195524,-1.220813 z"
     id="path1734"
     inkscape:connector-curvature="0" />
  <path
     style="fill:#216778;fill-opacity:0.70114938;stroke:none;stroke-width:0.13261041;stroke-linecap:square;stroke-linejoin:miter;stroke-miterlimit:4;stroke-dasharray:none;stroke-dashoffset:0;stroke-opacity:1"
     d="m 57.148945,44.550376 c -0.525923,-0.267016 -1.646456,-1.357401 -2.493992,-2.426864 -0.375701,-0.474085 -1.848,-2.176616 -3.271778,-3.783406 -4.892606,-5.52151 -6.011863,-6.828025 -5.924344,-6.915539 0.07827,-0.07825 5.817949,2.447823 5.992115,2.637192 0.204287,0.222124 6.181675,10.606214 6.132857,10.654199 -0.02041,0.02004 -0.216047,-0.05446 -0.434858,-0.165582 z"
     id="path1738"
     inkscape:connector-curvature="0" />
  <path
     style="fill:#216778;fill-opacity:0.70114938;stroke:none;stroke-width:0.13261041;stroke-linecap:square;stroke-linejoin:miter;stroke-miterlimit:4;stroke-dasharray:none;stroke-dashoffset:0;stroke-opacity:1"
     d="m 95.182972,36.999527 -2.677379,-1.650015 0.78159,-1.484407 c 0.42987,-0.816423 0.840081,-1.5039 0.911569,-1.527733 0.07148,-0.02379 0.621124,0.285485 1.221399,0.687377 1.113221,0.745301 3.752922,3.413198 3.673188,3.712421 -0.06288,0.236035 -1.093414,1.934494 -1.166687,1.922889 -0.03652,-0.0055 -1.271126,-0.753017 -2.74368,-1.660532 z"
     id="path1740"
     inkscape:connector-curvature="0" />
  <path
     style="fill:#216778;fill-opacity:0.70114938;stroke:none;stroke-width:0.13261041;stroke-linecap:square;stroke-linejoin:miter;stroke-miterlimit:4;stroke-dasharray:none;stroke-dashoffset:0;stroke-opacity:1"
     d="m 93.086365,54.887204 c -0.94816,-0.108774 -1.742407,-0.213997 -1.764986,-0.233839 -0.02261,-0.01986 0.09107,-1.147148 0.252601,-2.505144 0.1615,-1.357986 0.305053,-2.453442 0.319001,-2.434341 0.01391,0.01913 0.670289,0.959682 1.458524,2.090191 0.788243,1.130499 1.637953,2.338911 1.888256,2.685359 l 0.455103,0.629901 -0.44228,-0.01721 c -0.243257,-0.0094 -1.21805,-0.106175 -2.166219,-0.214949 z"
     id="path1742"
     inkscape:connector-curvature="0" />
  <path
     style="fill:#216778;fill-opacity:0.70114938;stroke:none;stroke-width:0.13261041;stroke-linecap:square;stroke-linejoin:miter;stroke-miterlimit:4;stroke-dasharray:none;stroke-dashoffset:0;stroke-opacity:1"
     d="m 52.10975,28.881177 -4.243531,-2.869831 6.298995,-0.210144 c 3.464441,-0.115583 6.312582,-0.201459 6.329184,-0.190833 0.02608,0.01666 -4.011103,6.023189 -4.106011,6.108936 -0.01931,0.01739 -1.944693,-1.259719 -4.278637,-2.838128 z"
     id="path1744"
     inkscape:connector-curvature="0" />
  <path
     style="fill:#216778;fill-opacity:0.70114938;stroke:none;stroke-width:0.13261041;stroke-linecap:square;stroke-linejoin:miter;stroke-miterlimit:4;stroke-dasharray:none;stroke-dashoffset:0;stroke-opacity:1"
     d="m 76.810018,40.69497 -1.413523,-1.422583 -0.854258,-3.419055 -0.854249,-3.419056 1.410475,0.03752 1.410474,0.03752 0.64535,3.381568 c 0.354941,1.859867 0.662465,3.400404 0.683387,3.42344 0.02087,0.02297 0.288779,-0.02563 0.595241,-0.108179 0.306471,-0.08255 0.572398,-0.131197 0.590959,-0.10817 0.01858,0.02297 -0.153922,0.711868 -0.383295,1.530753 l -0.417039,1.488891 z"
     id="path1746"
     inkscape:connector-curvature="0" />
  <path
     style="fill:#fdfefe;fill-opacity:0.70114938;stroke:none;stroke-width:0.13261041;stroke-linecap:square;stroke-linejoin:miter;stroke-miterlimit:4;stroke-dasharray:none;stroke-dashoffset:0;stroke-opacity:1"
     d="m 79.632496,37.60641 c 0.0037,-0.323622 0.08557,-2.079227 0.182669,-3.901349 l 0.176592,-3.312945 -1.103437,-1.958317 c -0.838571,-1.488241 -1.049539,-1.957731 -0.878878,-1.955892 0.12351,0.0018 0.821311,0.08832 1.55066,0.193231 2.125692,0.305848 9.242772,2.541441 9.241527,2.902916 -2.1e-4,0.06086 -1.900612,1.871582 -4.223123,4.02377 -2.322502,2.152188 -4.386838,4.066959 -4.587418,4.255037 l -0.364679,0.341954 z"
     id="path1748"
     inkscape:connector-curvature="0" />
  <path
     style="fill:#fdfefe;fill-opacity:0.70114938;stroke:none;stroke-width:0.13261041;stroke-linecap:square;stroke-linejoin:miter;stroke-miterlimit:4;stroke-dasharray:none;stroke-dashoffset:0;stroke-opacity:1"
     d="m 94.110562,52.16875 c -1.032644,-1.476947 -1.894389,-2.741316 -1.915,-2.809711 -0.03551,-0.11778 7.171364,-1.993754 7.272148,-1.89297 0.067,0.06699 -3.301937,7.38804 -3.39971,7.38804 -0.04393,0 -0.924794,-1.208412 -1.957438,-2.685359 z"
     id="path1750"
     inkscape:connector-curvature="0" />
  <path
     style="fill:#fdfefe;fill-opacity:0.70114938;stroke:none;stroke-width:0.13261041;stroke-linecap:square;stroke-linejoin:miter;stroke-miterlimit:4;stroke-dasharray:none;stroke-dashoffset:0;stroke-opacity:1"
     d="m 51.349505,32.947871 c -1.043664,-1.805155 -3.303273,-6.099858 -3.241746,-6.161388 0.0399,-0.0399 1.821955,1.10642 3.96012,2.547381 2.138167,1.440961 3.899177,2.627215 3.913353,2.63612 0.01995,0.01254 -1.946595,0.721332 -4.152778,1.496854 -0.08178,0.02874 -0.297306,-0.20479 -0.478949,-0.518967 z"
     id="path1752"
     inkscape:connector-curvature="0" />
  <path
     style="fill:#fdfefe;fill-opacity:0.70114938;stroke:none;stroke-width:0.13261041;stroke-linecap:square;stroke-linejoin:miter;stroke-miterlimit:4;stroke-dasharray:none;stroke-dashoffset:0;stroke-opacity:1"
     d="m 88.24609,42.186973 c 0,-0.09079 0.684531,-1.124349 0.744642,-1.124349 0.04906,0 1.802245,1.056504 1.896512,1.142873 0.03039,0.02782 -0.551439,0.05061 -1.292951,0.05061 -0.741512,0 -1.348203,-0.03112 -1.348203,-0.06919 z"
     id="path1756"
     inkscape:connector-curvature="0" />
  <path
     style="fill:#fdfefe;fill-opacity:0.70114938;stroke:none;stroke-width:0.13261041;stroke-linecap:square;stroke-linejoin:miter;stroke-miterlimit:4;stroke-dasharray:none;stroke-dashoffset:0;stroke-opacity:1"
     d="m 91.276177,34.612658 -0.74931,-0.459862 -0.410459,-1.75004 c -0.225757,-0.962529 -0.44789,-1.943372 -0.493633,-2.179654 l -0.08319,-0.429605 1.393132,0.583664 c 1.352925,0.566833 2.92889,1.487234 2.853778,1.666682 -0.214034,0.511288 -1.614011,3.048565 -1.677362,3.039998 -0.04604,-0.0064 -0.420847,-0.218262 -0.832961,-0.471183 z"
     id="path1758"
     inkscape:connector-curvature="0" />
  <path
     style="fill:#fdfefe;fill-opacity:0.70114938;stroke:none;stroke-width:0.13261041;stroke-linecap:square;stroke-linejoin:miter;stroke-miterlimit:4;stroke-dasharray:none;stroke-dashoffset:0;stroke-opacity:1"
     d="m 62.273716,32.292161 c -0.530297,-1.245076 -0.945515,-2.280667 -0.922707,-2.301324 0.04768,-0.0432 6.730765,3.696624 6.68623,3.741589 -0.0162,0.01629 -0.980769,0.181598 -2.143576,0.367287 -1.162807,0.18568 -2.23605,0.364286 -2.384984,0.396904 -0.238186,0.05217 -0.386855,-0.213219 -1.234963,-2.204456 z"
     id="path1760"
     inkscape:connector-curvature="0" />
  <path
     style="fill:#55ffdd;fill-opacity:0.70114938;stroke:none;stroke-width:0.13261041;stroke-linecap:square;stroke-linejoin:miter;stroke-miterlimit:4;stroke-dasharray:none;stroke-dashoffset:0;stroke-opacity:1"
     d="m 100.48237,42.786562 c 0,-0.328208 0.0259,-0.46248 0.0575,-0.298371 0.0316,0.164099 0.0316,0.432634 0,0.596742 -0.0316,0.164108 -0.0575,0.02984 -0.0575,-0.298371 z"
     id="path1766"
     inkscape:connector-curvature="0" />
  <path
     style="fill:#2ad4ff;fill-opacity:0.70114938;stroke:none;stroke-width:0.13261041;stroke-linecap:square;stroke-linejoin:miter;stroke-miterlimit:4;stroke-dasharray:none;stroke-dashoffset:0;stroke-opacity:1"
     d="M 91.212377,34.537738 90.531873,34.12188 90.071508,32.055768 c -0.253196,-1.136366 -0.439636,-2.090621 -0.414312,-2.120586 0.07505,-0.08878 2.303346,0.929581 3.163947,1.446013 0.571766,0.343098 0.793286,0.554231 0.787218,0.750271 -0.01117,0.360734 -1.384509,2.832353 -1.570583,2.826606 -0.07972,-0.0027 -0.451131,-0.191611 -0.825401,-0.420334 z"
     id="path1768"
     inkscape:connector-curvature="0" />
  <path
     style="fill:#2ad4ff;fill-opacity:0.70114938;stroke:none;stroke-width:0.13261041;stroke-linecap:square;stroke-linejoin:miter;stroke-miterlimit:4;stroke-dasharray:none;stroke-dashoffset:0;stroke-opacity:1"
     d="m 64.210699,45.442991 c -3.117874,-0.269487 -5.689792,-0.514949 -5.715372,-0.545472 -0.02563,-0.03057 1.000208,-2.220052 2.27955,-4.865626 1.801393,-3.725142 2.360474,-4.772055 2.478602,-4.641361 0.08393,0.09282 1.573594,2.376728 3.310455,5.075349 1.736861,2.698621 3.245027,5.040855 3.351476,5.204954 0.106458,0.164109 0.141932,0.290217 0.07889,0.28025 -0.06306,-0.01 -2.665691,-0.238607 -5.783557,-0.508094 z"
     id="path1770"
     inkscape:connector-curvature="0" />
</svg>
