<?xml version="1.0" encoding="UTF-8" standalone="no"?>
<!-- Created with Inkscape (http://www.inkscape.org/) -->

<svg
   xmlns:dc="http://purl.org/dc/elements/1.1/"
   xmlns:cc="http://creativecommons.org/ns#"
   xmlns:rdf="http://www.w3.org/1999/02/22-rdf-syntax-ns#"
   xmlns:svg="http://www.w3.org/2000/svg"
   xmlns="http://www.w3.org/2000/svg"
   xmlns:sodipodi="http://sodipodi.sourceforge.net/DTD/sodipodi-0.dtd"
   xmlns:inkscape="http://www.inkscape.org/namespaces/inkscape"
   width="210mm"
   height="297mm"
   viewBox="0 0 210 297"
   version="1.1"
   id="svg8"
   inkscape:version="0.92.3 (2405546, 2018-03-11)"
   sodipodi:docname="file_proto.svg">
  <defs
     id="defs2" />
  <sodipodi:namedview
     id="base"
     pagecolor="#ffffff"
     bordercolor="#666666"
     borderopacity="1.0"
     inkscape:pageopacity="0.0"
     inkscape:pageshadow="2"
     inkscape:zoom="31.678384"
     inkscape:cx="256.18988"
     inkscape:cy="458.35417"
     inkscape:document-units="mm"
     inkscape:current-layer="layer1"
     showgrid="false"
     inkscape:snap-global="false"
     inkscape:window-width="2560"
     inkscape:window-height="1385"
     inkscape:window-x="1920"
     inkscape:window-y="27"
     inkscape:window-maximized="1" />
  <metadata
     id="metadata5">
    <rdf:RDF>
      <cc:Work
         rdf:about="">
        <dc:format>image/svg+xml</dc:format>
        <dc:type
           rdf:resource="http://purl.org/dc/dcmitype/StillImage" />
        <dc:title></dc:title>
      </cc:Work>
    </rdf:RDF>
  </metadata>
  <g
     inkscape:label="Layer 1"
     inkscape:groupmode="layer"
     id="layer1">
    <path
       style="fill:#000000;fill-opacity:0.99497485;stroke:#c7c7ff;stroke-width:0.04557921;stroke-linecap:round;stroke-linejoin:round;stroke-miterlimit:4;stroke-dasharray:none;stroke-opacity:1;paint-order:fill markers stroke"
       d="M 244.69922 650.96289 C 243.71868 650.96289 242.92969 651.75188 242.92969 652.73242 L 242.92969 660.14648 C 242.92969 661.12702 243.71868 661.91602 244.69922 661.91602 L 249.61328 661.91602 C 250.59382 661.91602 251.38281 661.12702 251.38281 660.14648 L 251.38281 652.73242 C 251.38281 651.75188 250.59382 650.96289 249.61328 650.96289 L 244.69922 650.96289 z M 244.84766 651.37305 L 249.39844 651.37305 C 250.30615 651.37305 251.03516 652.10401 251.03516 653.01172 L 251.03516 659.875 C 251.03516 660.78271 250.30615 661.51367 249.39844 661.51367 L 244.84766 661.51367 C 243.93995 661.51367 243.20898 660.78271 243.20898 659.875 L 243.20898 653.01172 C 243.20898 652.10401 243.93995 651.37305 244.84766 651.37305 z "
       transform="scale(0.26458333)"
       id="rect815" />
    <circle
       r="0.57212377"
       cy="174.49867"
       cx="67.686005"
       id="circle834"
       style="fill:#ff2a2a;fill-opacity:1;stroke:none;stroke-width:0.44427142;stroke-linecap:round;stroke-linejoin:round;stroke-miterlimit:4;stroke-dasharray:none;stroke-opacity:1;paint-order:fill markers stroke" />
    <g
       id="g844"
       style="fill:#ffffff"
       transform="translate(5.6210124,0.77675199)">
      <rect
         ry="0.13363476"
         y="173.58829"
         x="61.530457"
         height="0.26726952"
         width="1.0690781"
         id="rect836"
         style="fill:#ffffff;fill-opacity:1;stroke:none;stroke-width:0.68099999;stroke-linecap:round;stroke-linejoin:round;stroke-miterlimit:4;stroke-dasharray:none;stroke-opacity:1;paint-order:fill markers stroke" />
      <rect
         transform="rotate(90)"
         style="fill:#ffffff;fill-opacity:1;stroke:none;stroke-width:0.68099999;stroke-linecap:round;stroke-linejoin:round;stroke-miterlimit:4;stroke-dasharray:none;stroke-opacity:1;paint-order:fill markers stroke"
         id="rect838"
         width="1.0690781"
         height="0.26726952"
         x="173.18738"
         y="-62.198631"
         ry="0.13363476" />
    </g>
    <path
       style="fill:#ff2a2a;fill-opacity:1;stroke:none;stroke-width:0.44427142;stroke-linecap:round;stroke-linejoin:round;stroke-miterlimit:4;stroke-dasharray:none;stroke-opacity:1;paint-order:fill markers stroke"
       d="m 71.820485,173.82648 a 0.57212375,0.57212375 0 0 0 -0.572058,0.57206 0.57212375,0.57212375 0 0 0 0.572058,0.57206 0.57212375,0.57212375 0 0 0 0.572058,-0.57206 0.57212375,0.57212375 0 0 0 -0.572058,-0.57206 z m -0.401008,0.43822 h 0.802018 c 0.07403,0 0.133324,0.0598 0.133324,0.13384 0,0.074 -0.05929,0.13332 -0.133324,0.13332 h -0.802018 c -0.07404,0 -0.133842,-0.0593 -0.133842,-0.13332 0,-0.074 0.05981,-0.13384 0.133842,-0.13384 z"
       id="circle846"
       inkscape:connector-curvature="0" />
  </g>
</svg>
