<?xml version="1.0" encoding="UTF-8" standalone="no"?>
<!-- Created with Inkscape (http://www.inkscape.org/) -->

<svg
   xmlns:dc="http://purl.org/dc/elements/1.1/"
   xmlns:cc="http://creativecommons.org/ns#"
   xmlns:rdf="http://www.w3.org/1999/02/22-rdf-syntax-ns#"
   xmlns:svg="http://www.w3.org/2000/svg"
   xmlns="http://www.w3.org/2000/svg"
   xmlns:sodipodi="http://sodipodi.sourceforge.net/DTD/sodipodi-0.dtd"
   xmlns:inkscape="http://www.inkscape.org/namespaces/inkscape"
   width="124"
   height="124"
   viewBox="0 0 32.808333 32.808334"
   version="1.1"
   id="svg8"
   inkscape:version="0.92.3 (2405546, 2018-03-11)"
   sodipodi:docname="file_proto.svg">
  <defs
     id="defs2" />
  <sodipodi:namedview
     id="base"
     pagecolor="#ffffff"
     bordercolor="#666666"
     borderopacity="1.0"
     inkscape:pageopacity="0.0"
     inkscape:pageshadow="2"
     inkscape:zoom="3.959798"
     inkscape:cx="192.95404"
     inkscape:cy="131.59979"
     inkscape:document-units="px"
     inkscape:current-layer="layer1"
     showgrid="false"
     inkscape:snap-global="false"
     inkscape:window-width="2560"
     inkscape:window-height="1385"
     inkscape:window-x="1920"
     inkscape:window-y="27"
     inkscape:window-maximized="1"
     units="px" />
  <metadata
     id="metadata5">
    <rdf:RDF>
      <cc:Work
         rdf:about="">
        <dc:format>image/svg+xml</dc:format>
        <dc:type
           rdf:resource="http://purl.org/dc/dcmitype/StillImage" />
        <dc:title></dc:title>
      </cc:Work>
    </rdf:RDF>
  </metadata>
  <g
     inkscape:label="Layer 1"
     inkscape:groupmode="layer"
     id="layer1"
     transform="translate(0,-264.19165)">
    <path
       style="fill:#000000;fill-opacity:0.99497483;stroke:#c7c7ff;stroke-width:0.13595946;stroke-linecap:round;stroke-linejoin:round;stroke-miterlimit:4;stroke-dasharray:none;stroke-opacity:1;paint-order:fill markers stroke"
       d="m 9.0750257,264.25963 c -2.924878,0 -5.278379,2.3535 -5.278379,5.27836 v 22.11562 c 0,2.92486 2.353501,5.27839 5.278379,5.27839 H 23.733311 c 2.924878,0 5.278376,-2.35353 5.278376,-5.27839 v -22.11562 c 0,-2.92486 -2.353498,-5.27836 -5.278376,-5.27836 z m 0.442786,1.22348 H 23.092458 c 2.707632,0 4.882215,2.1804 4.882215,4.88803 v 20.47266 c 0,2.70763 -2.174583,4.88803 -4.882215,4.88803 H 9.5178117 c -2.707631,0 -4.888063,-2.1804 -4.888063,-4.88803 v -20.47266 c 0,-2.70763 2.180432,-4.88803 4.888063,-4.88803 z"
       id="rect815"
       inkscape:connector-curvature="0" />
    <path
       style="fill:#ff2a2a;fill-opacity:1;stroke:none;stroke-width:5.00874043;stroke-linecap:round;stroke-linejoin:round;stroke-miterlimit:4;stroke-dasharray:none;stroke-opacity:1;paint-order:fill markers stroke"
       d="m 16.336629,281.42858 a 6.4501549,6.4501549 0 0 0 -6.4495969,6.45104 6.4501549,6.4501549 0 0 0 6.4495969,6.44961 6.4501549,6.4501549 0 0 0 6.451038,-6.44961 6.4501549,6.4501549 0 0 0 -6.451038,-6.45104 z m 0,0.42411 c 0.83466,0 1.507452,0.6728 1.507455,1.50746 v 3.01204 h 3.01202 c 0.83466,0 1.507455,0.67277 1.507455,1.50743 0,0.83468 -0.672795,1.50603 -1.507455,1.50603 h -3.01202 v 3.01346 c 0,0.83466 -0.672795,1.50746 -1.507455,1.50746 -0.834659,0 -1.506011,-0.6728 -1.506011,-1.50746 v -3.01346 h -3.013467 c -0.834659,0 -1.506011,-0.67135 -1.506011,-1.50603 0,-0.83466 0.671352,-1.50743 1.506011,-1.50743 h 3.013467 v -3.01204 c 0,-0.83466 0.671352,-1.50746 1.506011,-1.50746 z"
       id="circle834"
       inkscape:connector-curvature="0" />
    <path
       style="fill:#ff2a2a;fill-opacity:1;stroke:none;stroke-width:5.00874043;stroke-linecap:round;stroke-linejoin:round;stroke-miterlimit:4;stroke-dasharray:none;stroke-opacity:1;paint-order:fill markers stroke"
       d="m 16.337351,265.92784 a 6.4501549,6.4501549 0 0 0 -6.4494157,6.44945 6.4501549,6.4501549 0 0 0 6.4494157,6.44942 6.4501549,6.4501549 0 0 0 6.449413,-6.44942 6.4501549,6.4501549 0 0 0 -6.449413,-6.44945 z m -4.520988,4.94051 h 9.041996 c 0.834617,0 1.503103,0.6742 1.503103,1.50894 0,0.83426 -0.668441,1.50305 -1.503103,1.50305 h -9.041996 c -0.834729,0 -1.508942,-0.66856 -1.508942,-1.50305 0,-0.83429 0.674302,-1.50894 1.508942,-1.50894 z"
       id="circle846"
       inkscape:connector-curvature="0" />
  </g>
</svg>
