<?xml version="1.0" encoding="UTF-8" standalone="no"?>
<!-- Created with Inkscape (http://www.inkscape.org/) -->

<svg
   xmlns:dc="http://purl.org/dc/elements/1.1/"
   xmlns:cc="http://creativecommons.org/ns#"
   xmlns:rdf="http://www.w3.org/1999/02/22-rdf-syntax-ns#"
   xmlns:svg="http://www.w3.org/2000/svg"
   xmlns="http://www.w3.org/2000/svg"
   xmlns:sodipodi="http://sodipodi.sourceforge.net/DTD/sodipodi-0.dtd"
   xmlns:inkscape="http://www.inkscape.org/namespaces/inkscape"
   width="124"
   height="124"
   viewBox="0 0 32.808333 32.808334"
   version="1.1"
   id="svg8"
   inkscape:version="0.92.3 (2405546, 2018-03-11)"
   sodipodi:docname="folder1.svg">
  <defs
     id="defs2" />
  <sodipodi:namedview
     id="base"
     pagecolor="#ffffff"
     bordercolor="#666666"
     borderopacity="1.0"
     inkscape:pageopacity="0.0"
     inkscape:pageshadow="2"
     inkscape:zoom="3.959798"
     inkscape:cx="108.31036"
     inkscape:cy="82.813963"
     inkscape:document-units="px"
     inkscape:current-layer="layer1"
     showgrid="false"
     inkscape:snap-global="false"
     inkscape:window-width="2560"
     inkscape:window-height="1385"
     inkscape:window-x="1920"
     inkscape:window-y="27"
     inkscape:window-maximized="1"
     units="px" />
  <metadata
     id="metadata5">
    <rdf:RDF>
      <cc:Work
         rdf:about="">
        <dc:format>image/svg+xml</dc:format>
        <dc:type
           rdf:resource="http://purl.org/dc/dcmitype/StillImage" />
        <dc:title></dc:title>
      </cc:Work>
    </rdf:RDF>
  </metadata>
  <g
     inkscape:label="Layer 1"
     inkscape:groupmode="layer"
     id="layer1"
     transform="translate(0,-264.19165)">
    <path
       inkscape:connector-curvature="0"
       id="path887"
       d="m 32.740352,273.26667 c 0,-2.92487 -2.3535,-5.27838 -5.27836,-5.27838 h -1.382226 -1.382227 -1.382226 -1.382226 -1.382226 -1.382227 -1.382226 -1.382226 -1.382226 -1.382227 l -0.714052,-1.46998 h -2.0504 -1.3822263 -2.1840349 l -0.5804176,1.46998 H 5.3463719 c -2.92486,0 -5.27839005,2.35351 -5.27839005,5.27838 v 14.65829 c 0,2.92488 2.35353005,5.27838 5.27839005,5.27838 H 27.461992 c 2.92486,0 5.27836,-2.3535 5.27836,-5.27838 z m -1.22348,0.44279 v 13.57465 c 0,2.70763 -2.1804,4.88221 -4.88803,4.88221 H 6.1561818 c -2.7076299,0 -4.88803,-2.17458 -4.88803,-4.88221 v -13.57465 c 0,-2.70763 2.1804001,-4.88806 4.88803,-4.88806 h 1.2795413 1.2795412 1.2795413 1.2795414 1.279541 1.279541 1.279542 1.279541 1.279541 1.279541 1.279542 1.279541 1.279541 1.279541 1.279542 1.279541 c 2.70763,0 4.88803,2.18043 4.88803,4.88806 z"
       style="fill:#000000;fill-opacity:0.99497483;stroke:#000000;stroke-width:0.13595946;stroke-linecap:round;stroke-linejoin:round;stroke-miterlimit:4;stroke-dasharray:none;stroke-opacity:1;paint-order:fill markers stroke"
       sodipodi:nodetypes="sscccccccccccccccsssssssssssssscccccccccccccccss" />
  </g>
</svg>
